<?xml version="1.0" encoding="iso-8859-1"?>
<!-- Generator: Adobe Illustrator 23.0.3, SVG Export Plug-In . SVG Version: 6.00 Build 0)  -->
<svg version="1.1" id="Ebene_2" xmlns="http://www.w3.org/2000/svg" xmlns:xlink="http://www.w3.org/1999/xlink" x="0px" y="0px"
	 width="110px" height="110px" viewBox="0 0 110 110" enable-background="new 0 0 110 110" xml:space="preserve">
<circle fill="#FFCA61" cx="55" cy="55" r="55"/>
<defs>
	<filter id="Adobe_OpacityMaskFilter" filterUnits="userSpaceOnUse" x="21.052" y="26.255" width="108.643" height="116.743">
		<feColorMatrix  type="matrix" values="1 0 0 0 0  0 1 0 0 0  0 0 1 0 0  0 0 0 1 0"/>
	</filter>
</defs>
<mask maskUnits="userSpaceOnUse" x="21.052" y="26.255" width="108.643" height="116.743" id="SVGID_1_">
	<g filter="url(#Adobe_OpacityMaskFilter)">
		<circle fill="#F9B74B" cx="55.002" cy="54.995" r="55"/>
	</g>
</mask>
<polygon opacity="0.25" mask="url(#SVGID_1_)" points="129.695,90.213 76.91,142.998 21.052,87.14 34.549,83.776 49.674,65.13 
	49.611,63.627 51.007,62.463 65.736,26.255 "/>
<g>
	<path fill="#937241" d="M50.239,17.792c0-0.55-0.45-1-1-1h-0.302c-0.55,0-1,0.45-1,1v51.197c0,0.55,0.45,1,1,1h0.302
		c0.55,0,1-0.45,1-1V17.792z"/>
</g>
<polygon fill="#FFFFFF" points="47.899,27.513 47.899,27.513 47.899,63.627 27.093,63.627 "/>
<path fill="#FFFFFF" d="M49.404,16.792C67.188,50.085,49.404,16.792,49.404,16.792s11.913,33.575,0,46.835
	c3.108,0,29.697,0,29.697,0S80.309,25.256,49.404,16.792z"/>
<polygon fill="#CDD1D3" points="47.899,38.015 47.899,38.015 47.899,63.627 40.644,63.627 "/>
<polygon fill="#ED5E4A" points="30.466,27.643 47.937,27.643 47.937,17.815 30.466,17.815 36.081,22.729 "/>
<rect x="45.909" y="17.815" opacity="0.2" width="2.028" height="9.828"/>
<path fill="#593919" d="M91.863,67.177c0,0-14.194,18.031-43.768,18.031c-20.359,0-29.958-18.031-29.958-18.031"/>
<path fill="#1BABEA" d="M87.172,71.781c3.222-2.525,4.691-4.604,4.691-4.604H18.137c0,0,1.054,1.97,3.188,4.604H87.172z"/>
<g>
	<path fill="#1BABEA" d="M88.779,90.615c-6.498,0.861-6.813-3.918-13.369-3.918c-6.557,0-6.557,3.935-13.115,3.935
		c-6.555,0-6.555-3.935-13.111-3.935c-6.56,0-6.56,3.935-13.12,3.935s-6.359-3.059-12.862-3.918
		c-0.858-0.113-2.225,1.084-2.225,0.219c0-0.865,3.935-0.865,3.935-1.729c0-0.867-3.935-0.867-3.935-1.733
		c0-0.868,3.935-0.868,3.935-1.736s-3.086-3.572-2.226-3.686c6.498-0.861,6.813,3.918,13.369,3.918
		c6.557,0,6.557-3.935,13.115-3.935c6.555,0,6.555,3.935,13.111,3.935c6.56,0,6.56-3.935,13.12-3.935
		c6.56,0,6.359,3.059,12.862,3.918c0.858,0.113,2.225-1.084,2.225-0.219c0,0.865-3.935,0.865-3.935,1.729
		c0,0.867,3.935,0.867,3.935,1.733c0,0.868-4.071,1.292-3.892,2.142C86.997,89.238,89.64,90.501,88.779,90.615z"/>
</g>
<g>
</g>
<g>
</g>
<g>
</g>
<g>
</g>
<g>
</g>
<g>
</g>
<g>
</g>
<g>
</g>
<g>
</g>
<g>
</g>
<g>
</g>
<g>
</g>
<g>
</g>
<g>
</g>
<g>
</g>
</svg>
