<?xml version="1.0" encoding="iso-8859-1"?>
<!-- Generator: Adobe Illustrator 23.0.3, SVG Export Plug-In . SVG Version: 6.00 Build 0)  -->
<svg version="1.1" id="Ebene_6" xmlns="http://www.w3.org/2000/svg" xmlns:xlink="http://www.w3.org/1999/xlink" x="0px" y="0px"
	 width="110px" height="110px" viewBox="0 0 110 110" enable-background="new 0 0 110 110" xml:space="preserve">
<g>
	<circle fill="#8E8E8E" cx="55.11" cy="55" r="55"/>
	<defs>
		<filter id="Adobe_OpacityMaskFilter" filterUnits="userSpaceOnUse" x="45.08" y="24.72" width="72.316" height="96.899">
			<feColorMatrix  type="matrix" values="1 0 0 0 0  0 1 0 0 0  0 0 1 0 0  0 0 0 1 0"/>
		</filter>
	</defs>
	<mask maskUnits="userSpaceOnUse" x="45.08" y="24.72" width="72.316" height="96.899" id="SVGID_1_">
		<g filter="url(#Adobe_OpacityMaskFilter)">
			<circle fill="#8E8E8E" cx="55.112" cy="55.005" r="55"/>
		</g>
	</mask>
	<polygon display="none" opacity="0.4" mask="url(#SVGID_1_)" points="82.789,121.62 45.08,83.911 55.11,42.549 55.105,24.72 
		117.396,87.012 	"/>
	<defs>
		<filter id="Adobe_OpacityMaskFilter_1_" filterUnits="userSpaceOnUse" x="44.938" y="42.38" width="62.757" height="72.757">
			<feColorMatrix  type="matrix" values="1 0 0 0 0  0 1 0 0 0  0 0 1 0 0  0 0 0 1 0"/>
		</filter>
	</defs>
	<mask maskUnits="userSpaceOnUse" x="44.938" y="42.38" width="62.757" height="72.757" id="SVGID_2_">
		<g filter="url(#Adobe_OpacityMaskFilter_1_)">
			<circle fill="#8E8E8E" cx="55.11" cy="55" r="55"/>
		</g>
	</mask>
	<polygon opacity="0.35" mask="url(#SVGID_2_)" points="76.271,115.137 44.938,83.804 66.361,42.38 107.695,83.713 	"/>
	<ellipse fill="#CCC6B0" cx="55.11" cy="42.671" rx="11.417" ry="2.001"/>
	<path fill="#E8E9EA" d="M66.526,42.549v37.737c0,2.75-1.993,5-4.429,5H48.122c-2.436,0-4.429-2.25-4.429-5V42.549
		c0,0,6.023-3.158,11.417,0C61.532,46.309,66.526,42.549,66.526,42.549z"/>
	<path fill="#FFCC3E" d="M59.632,33.268c0,4.724-2.025,8.554-4.522,8.554c-2.498,0-4.522-3.83-4.522-8.554
		s4.522-10.554,4.522-10.554S59.632,28.543,59.632,33.268z"/>
	<path fill="#FF9640" d="M57.65,35.83c0,2.654-1.137,4.805-2.54,4.805s-2.54-2.151-2.54-4.805s2.54-5.929,2.54-5.929
		S57.65,33.176,57.65,35.83z"/>
	<path fill="#FFFFFF" d="M48.443,41.219c-2.736,0.282-4.75,1.33-4.75,1.33v37.737c0,2.75,1.993,5,4.429,5h0.321V41.219z"/>
</g>
<g>
</g>
<g>
</g>
<g>
</g>
<g>
</g>
<g>
</g>
<g>
</g>
<g>
</g>
<g>
</g>
<g>
</g>
<g>
</g>
<g>
</g>
<g>
</g>
<g>
</g>
<g>
</g>
<g>
</g>
</svg>
