<?xml version="1.0" encoding="iso-8859-1"?>
<!-- Generator: Adobe Illustrator 23.0.3, SVG Export Plug-In . SVG Version: 6.00 Build 0)  -->
<svg version="1.1" id="Ebene_1_Kopie" xmlns="http://www.w3.org/2000/svg" xmlns:xlink="http://www.w3.org/1999/xlink" x="0px"
	 y="0px" width="125.111px" height="105.224px" viewBox="0 0 125.111 105.224" enable-background="new 0 0 125.111 105.224"
	 xml:space="preserve">
<rect x="50" fill="#02BBBF" width="75.111" height="105.224"/>
<g>
	<path fill="#FFFFFF" d="M78.188,15.661l-1.117,1.352v3.891h-1.43V9.528h1.43v5.492l0.938-1.242l3.063-4.25h1.719l-3.695,5.008
		l3.984,6.367h-1.711L78.188,15.661z"/>
	<path fill="#FFFFFF" d="M91.008,10.755h-2.992v10.148h-1.43V10.755h-2.984V9.528h7.406V10.755z"/>
	<path fill="#FFFFFF" d="M99.587,19.489l-0.25,0.313c-0.719,0.839-1.771,1.258-3.156,1.258c-1.229,0-2.193-0.407-2.895-1.223
		c-0.7-0.815-1.059-1.968-1.074-3.457v-2.234c0-1.594,0.319-2.788,0.957-3.582c0.639-0.794,1.593-1.191,2.863-1.191
		c1.084,0,1.932,0.301,2.543,0.902c0.612,0.602,0.949,1.462,1.012,2.582h-1.43c-0.057-0.708-0.254-1.262-0.59-1.66
		s-0.845-0.598-1.527-0.598c-0.817,0-1.416,0.267-1.797,0.801c-0.38,0.534-0.578,1.387-0.594,2.559v2.32
		c0,1.146,0.219,2.024,0.656,2.637s1.065,0.918,1.883,0.918c0.771,0,1.357-0.187,1.758-0.56l0.211-0.194v-2.613h-2.078v-1.227h3.508
		V19.489z"/>
</g>
<rect y="30.113" fill="#298174" width="75.111" height="75.111"/>
<g>
	<path fill="#FFFFFF" d="M33.794,61.29h-1.43V49.915h1.43V61.29z"/>
	<path fill="#FFFFFF" d="M39.552,59.095l2.602-9.18h1.57L40.185,61.29h-1.25l-3.531-11.375h1.563L39.552,59.095z"/>
</g>
<polygon opacity="0.15" fill="#303435" points="75.111,30.113 115.111,105.224 115.111,105.224 75.111,105.224 "/>
<g>
</g>
<g>
</g>
<g>
</g>
<g>
</g>
<g>
</g>
<g>
</g>
<g>
</g>
<g>
</g>
<g>
</g>
<g>
</g>
<g>
</g>
<g>
</g>
<g>
</g>
<g>
</g>
<g>
</g>
</svg>
