<?xml version="1.0" encoding="iso-8859-1"?>
<!-- Generator: Adobe Illustrator 23.0.3, SVG Export Plug-In . SVG Version: 6.00 Build 0)  -->
<svg version="1.1" id="Ebene_1" xmlns="http://www.w3.org/2000/svg" xmlns:xlink="http://www.w3.org/1999/xlink" x="0px" y="0px"
	 width="125.111px" height="105.224px" viewBox="0 0 125.111 105.224" enable-background="new 0 0 125.111 105.224"
	 xml:space="preserve">
<rect x="50" fill="#02BBBF" width="75.111" height="105.224"/>
<g>
	<path fill="#FFFFFF" d="M81.419,16.45v4.453h-1.43V9.528h3.625c1.058,0,1.889,0.316,2.492,0.949
		c0.604,0.633,0.906,1.476,0.906,2.527c0,1.094-0.287,1.937-0.863,2.527c-0.575,0.591-1.387,0.897-2.434,0.918H81.419z
		 M81.419,15.224h2.195c0.636,0,1.123-0.19,1.461-0.571c0.339-0.381,0.508-0.926,0.508-1.636c0-0.684-0.174-1.231-0.523-1.644
		c-0.349-0.412-0.828-0.618-1.438-0.618h-2.203V15.224z"/>
	<path fill="#FFFFFF" d="M91.403,15.661l-1.117,1.352v3.891h-1.43V9.528h1.43v5.492l0.938-1.242l3.063-4.25h1.719l-3.695,5.008
		l3.984,6.367h-1.711L91.403,15.661z"/>
</g>
<rect y="30.113" fill="#298174" width="75.111" height="75.111"/>
<g>
	<path fill="#FFFFFF" d="M30.036,58.314h-3.844L25.31,61.29h-1.469l3.664-11.375h1.227l3.672,11.375h-1.469L30.036,58.314z
		 M26.568,57.087h3.102l-1.555-5.172L26.568,57.087z"/>
	<path fill="#FFFFFF" d="M41.396,61.29h-1.438v-5.258H35.38v5.258h-1.43V49.915h1.43v4.891h4.578v-4.891h1.438V61.29z"/>
	<path fill="#FFFFFF" d="M47.122,59.095l2.602-9.18h1.57L47.755,61.29h-1.25l-3.531-11.375h1.563L47.122,59.095z"/>
</g>
<polygon opacity="0.15" fill="#303435" points="75.111,30.113 115.111,105.224 115.111,105.224 75.111,105.224 "/>
<g>
</g>
<g>
</g>
<g>
</g>
<g>
</g>
<g>
</g>
<g>
</g>
<g>
</g>
<g>
</g>
<g>
</g>
<g>
</g>
<g>
</g>
<g>
</g>
<g>
</g>
<g>
</g>
<g>
</g>
</svg>
