<?xml version="1.0" encoding="iso-8859-1"?>
<!-- Generator: Adobe Illustrator 23.0.3, SVG Export Plug-In . SVG Version: 6.00 Build 0)  -->
<svg version="1.1" id="Ebene_4" xmlns="http://www.w3.org/2000/svg" xmlns:xlink="http://www.w3.org/1999/xlink" x="0px" y="0px"
	 width="110px" height="110px" viewBox="0 0 110 110" enable-background="new 0 0 110 110" xml:space="preserve">
<circle fill="#FF8C71" cx="54.966" cy="55" r="55"/>
<defs>
	<filter id="Adobe_OpacityMaskFilter" filterUnits="userSpaceOnUse" x="21.872" y="34.907" width="113.88" height="102.359">
		<feColorMatrix  type="matrix" values="1 0 0 0 0  0 1 0 0 0  0 0 1 0 0  0 0 0 1 0"/>
	</filter>
</defs>
<mask maskUnits="userSpaceOnUse" x="21.872" y="34.907" width="113.88" height="102.359" id="SVGID_1_">
	<g filter="url(#Adobe_OpacityMaskFilter)">
		<g>
			<circle fill="#FFFFFF" cx="54.965" cy="54.999" r="55"/>
		</g>
	</g>
</mask>
<polygon opacity="0.35" mask="url(#SVGID_1_)" points="135.752,82.823 81.309,137.265 21.872,77.828 87.835,34.907 "/>
<g>
	<path fill="#E8E9EA" d="M89.299,74.506c0,2.75-2.25,5-5,5H25.632c-2.75,0-5-2.25-5-5V38.435c0-2.75,2.25-5,5-5h58.667
		c2.75,0,5,2.25,5,5V74.506z"/>
</g>
<rect x="50.857" y="43.559" fill="#ED5E4A" width="8.217" height="25.823"/>
<rect x="50.857" y="43.559" transform="matrix(-1.836970e-16 1 -1 -1.836970e-16 111.4365 1.5052)" fill="#ED5E4A" width="8.217" height="25.823"/>
<path fill="none" stroke="#E8E9EA" stroke-width="5" stroke-miterlimit="10" d="M45.575,33.435v-2.54
	c0-2.421,1.981-4.402,4.402-4.402h9.977c2.421,0,4.402,1.981,4.402,4.402v2.54"/>
<g>
</g>
<g>
</g>
<g>
</g>
<g>
</g>
<g>
</g>
<g>
</g>
<g>
</g>
<g>
</g>
<g>
</g>
<g>
</g>
<g>
</g>
<g>
</g>
<g>
</g>
<g>
</g>
<g>
</g>
</svg>
