<?xml version="1.0" encoding="iso-8859-1"?>
<!-- Generator: Adobe Illustrator 23.0.3, SVG Export Plug-In . SVG Version: 6.00 Build 0)  -->
<svg version="1.1" id="Ebene_1_Kopie_Kopie" xmlns="http://www.w3.org/2000/svg" xmlns:xlink="http://www.w3.org/1999/xlink"
	 x="0px" y="0px" width="125.111px" height="105.224px" viewBox="0 0 125.111 105.224" enable-background="new 0 0 125.111 105.224"
	 xml:space="preserve">
<rect x="50" fill="#02BBBF" width="75.111" height="105.224"/>
<g>
	<path fill="#FFFFFF" d="M86.633,17.7c0-0.625,0.065-1.133,0.195-1.523c0.131-0.391,0.448-0.888,0.953-1.492l0.547-0.703
		c0.365-0.511,0.547-1.042,0.547-1.594c0-0.547-0.113-0.976-0.34-1.285s-0.551-0.465-0.973-0.465c-0.396,0-0.725,0.141-0.988,0.422
		c-0.263,0.281-0.395,0.659-0.395,1.133h-1.375c0.011-0.859,0.271-1.544,0.781-2.055c0.511-0.511,1.17-0.766,1.977-0.766
		c0.839,0,1.498,0.263,1.977,0.789c0.479,0.526,0.719,1.253,0.719,2.18c0,0.886-0.361,1.773-1.086,2.664l-0.719,0.867
		c-0.297,0.422-0.445,1.031-0.445,1.828H86.633z M87.383,19.349c0.261,0,0.457,0.079,0.59,0.238s0.199,0.355,0.199,0.59
		s-0.066,0.429-0.199,0.582s-0.329,0.23-0.59,0.23c-0.266,0-0.462-0.077-0.59-0.23c-0.127-0.153-0.191-0.348-0.191-0.582
		s0.064-0.431,0.191-0.59C86.922,19.428,87.118,19.349,87.383,19.349z"/>
</g>
<rect y="30.113" fill="#298174" width="75.111" height="75.111"/>
<g>
	<path fill="#FFFFFF" d="M36.634,58.087c0-0.625,0.065-1.133,0.195-1.523c0.13-0.391,0.448-0.888,0.953-1.492l0.547-0.703
		c0.364-0.511,0.547-1.042,0.547-1.594c0-0.547-0.113-0.976-0.34-1.285s-0.551-0.465-0.973-0.465c-0.396,0-0.726,0.141-0.988,0.422
		c-0.263,0.281-0.395,0.659-0.395,1.133h-1.375c0.01-0.859,0.271-1.544,0.781-2.055c0.51-0.511,1.169-0.766,1.977-0.766
		c0.838,0,1.497,0.263,1.977,0.789c0.479,0.526,0.719,1.253,0.719,2.18c0,0.886-0.362,1.773-1.086,2.664l-0.719,0.867
		c-0.297,0.422-0.445,1.031-0.445,1.828H36.634z M37.384,59.735c0.26,0,0.457,0.079,0.59,0.238s0.199,0.355,0.199,0.59
		s-0.066,0.429-0.199,0.582s-0.33,0.23-0.59,0.23c-0.266,0-0.462-0.077-0.59-0.23c-0.128-0.153-0.191-0.348-0.191-0.582
		s0.063-0.431,0.191-0.59C36.922,59.814,37.118,59.735,37.384,59.735z"/>
</g>
<polygon opacity="0.15" fill="#303435" points="75.111,30.113 115.111,105.224 115.111,105.224 75.111,105.224 "/>
<g>
</g>
<g>
</g>
<g>
</g>
<g>
</g>
<g>
</g>
<g>
</g>
<g>
</g>
<g>
</g>
<g>
</g>
<g>
</g>
<g>
</g>
<g>
</g>
<g>
</g>
<g>
</g>
<g>
</g>
</svg>
