<svg xmlns="http://www.w3.org/2000/svg" width="644.535" height="749.82" viewBox="0 0 644.535 749.82">
  <title>moneto_hero_v01</title>
  <path d="M383.532,749.819c2.64-5.1,4.941-12.409,6.833-22.4,20.434-107.839,151.381,88.032,133.775-5.5S698,686.708,629.778,604.178,421.247,228.942,411.621,209.134s-42.582-51.49-62.967-51.054S245.09,140.9,245.09,140.9C130.2,163.309-16.157,534.853,1.45,645.993c115.542-23.842,172.523,5.5,172.523,5.5s72.319,144.153,100.1,61.623c17.655-52.444,51.578,11.084,79.208,36.7" fill="#d84d3a"/>
  <path d="M179.168,749.819c.789-6.553,1.634-12.521,2.54-17.669,7.208-40.934,22.425-82.046,26.7-92.191s.6-45.034,4.806-79.021c4.449-35.951,19.577-68.1,22.781-82.58s5.44-29.71,5.44-29.71,27.485.166,43.859,6.929,33.86,32.035,33.86,32.035-9.656,64.427-22.47,95.039-42.422,90.767-42.39,100.734c.027,8.3-3.177,45.717-6.716,66.434" fill="#1babea"/>
  <path d="M193.341,749.819c14.957-60.987,33-106.7,33.217-111.284.356-7.475-13.408-27.645-4.386-91.479,3.838-27.156,34.636-83.573,39.478-91.644l-10.141-6.319c-5.976-.42-10.078-.445-10.078-.445s-2.237,15.234-5.44,29.71-18.332,46.629-22.781,82.58c-4.206,33.986-.534,68.876-4.806,79.021s-19.488,51.257-26.7,92.191c-.905,5.142-1.752,11.126-2.54,17.669" opacity="0.1"/>
  <path d="M440.119,749.82q-.225-2.913-.491-5.607c-4.1-41.361-16.177-83.5-19.671-93.941s2.8-44.951,1.164-79.158c-1.727-36.184-14.388-69.387-16.491-84.062s-4.788-31.637-4.788-31.637-25.817-.305-42.654,5.2-36.179,29.392-36.179,29.392,4.772,64.971,15.243,96.462,35.459,93.706,34.676,103.642c-.584,7.417-.348,38.3,1.125,59.7" fill="#1babea"/>
  <path d="M384.224,749.82c-5.55-54.422,1.214-79.961,1.214-79.961s-33.23-57.308-41.417-86.5-11.034-87.208-8.9-104.293c0,0-.263-1.226-.825-3.118a154.467,154.467,0,0,0-13.289,14.06s4.772,64.971,15.243,96.462,35.459,93.706,34.676,103.642c-.584,7.409-.344,38.3,1.125,59.7" opacity="0.1"/>
  <path d="M238.66,463.882c12.34-1.661,37.877-1.186,53.941,12.34S316.5,500.427,317.206,500.9s3.8.475,5.458,0,17.561-18.272,36.307-27.527,41.29-16.611,41.29-16.611L391.956,410.2s-51.641,9.952-72.806,6.9S251,396.039,251,396.039Z" fill="#f76346"/>
  <path d="M418.8,168.5c-12.1-4.271-26.7,1.068-33.46,13.17s-11.39,36.663,6.764,53.393,67.914,79.493,72.969,83.648c9.391,7.719,31.11,30.592,43.07,17.8,15.306-16.374,3.2-26.341-6.763-46.986s-21.357-48.409-37.731-70.122S430.9,172.775,418.8,168.5Z" fill="#1babea"/>
  <path d="M446.535,279.912c-.712-.53-11.035-10.853-17.8-15.48s-10.679-7.967-13.171-10.747c-1.845-2.058-7.788-6.761-11.615-6.363,22.167,24.414,56.939,67.955,61.121,71.392.418.344.862.718,1.327,1.118C459.368,299.276,447.209,280.415,446.535,279.912Z" opacity="0.1"/>
  <path d="M486.092,300.917c14.245,0,25.843,13.507,26.335,30.388a48.818,48.818,0,0,1-4.284,5.207c-11.96,12.794-33.679-10.079-43.07-17.8a22.8,22.8,0,0,1-1.875-1.9C467.738,307.321,476.286,300.917,486.092,300.917Z" opacity="0.1"/>
  <polygon points="341.73 164.325 281.588 170.125 281.481 114.718 333.37 111.669 341.73 164.325" fill="#fab596"/>
  <path d="M335.908,127.651l-2.538-15.982-51.889,3.049.044,23.158a95.611,95.611,0,0,0,12.662.833C311.1,138.709,326.16,134.387,335.908,127.651Z" opacity="0.1"/>
  <path d="M388.159,408.591c-4.627,3.916-42,12.1-61.223,9.967s-71.9-24.2-71.9-24.2c2.847-16.373,2.847-61.223,0-80.444s-22.781-64.427-29.188-86.14-16.018-53.393-10.679-62.647,25.927-12.067,36.307-14.95a109.787,109.787,0,0,1,29.9-4.272c7.119,0,21.357,9.967,30.612,12.1s27.571-11.584,36.114-11.584,29.454-.842,38.635,3.753c10.59,5.3,24.917,9.254,30.612,17.8s10.323,58.376,4.983,99.666S404.525,359.256,388.159,408.591Z" fill="#1babea"/>
  <path d="M388.693,409.659c-4.627,3.916-42.536,11.035-61.757,8.9s-71.9-19.933-71.9-19.933c2.847-16.374-7.831-65.495-10.679-84.716s-18.509-64.427-24.916-86.14-9.611-53.393-4.272-62.647,25.927-12.067,36.307-14.95a109.787,109.787,0,0,1,29.9-4.272c7.119,0,21.357,9.967,30.612,12.1s27.571-11.584,36.114-11.584,29.454-.842,38.635,3.753c10.59,5.3,24.917,9.254,30.612,17.8s10.323,58.376,4.983,99.666S405.059,360.324,388.693,409.659Z" fill="#1babea"/>
  <circle cx="337.385" cy="235.437" r="55.788" fill="#fff"/>
  <polygon points="337.385 223.073 304.895 204.315 304.897 256.39 322.507 266.559 322.507 234.819 337.385 243.409 337.385 223.073" fill="#1babea"/>
  <polygon points="337.384 223.073 369.875 204.315 369.873 256.39 352.262 266.559 352.262 234.819 337.384 243.409 337.384 223.073" fill="#95ed2e"/>
  <path d="M224.308,245.174c8.483,23.109,17.832,53.783,20.047,68.735,2.848,19.221,13.527,64.071,10.679,80.444,0,0,7.394,3.1,17.652,7.084,3.285-5.7,6.135-14.792,8.451-20.135,3.085-7.119-2.373-56.715-1.424-70.241s-32.866-46.155-37.849-53.511Z" opacity="0.1"/>
  <path d="M330.557,416.781c1.565-17.338,4.122-29.809,1.057-30.874s-32.791-5.791-32.791-5.791,5.7-3.145,21.567-.342c8.621,1.523,14.539,1.989,14.392-2.975s2.247-19.457,1.462-21.776S307.3,350.83,304.8,349.247s12.1-1.533,16.89-1.079c6.755.641,16.27,5.913,15.94,1.873s.974-30.06,2.75-30.2c5.03-.41-.091,28.156.8,29.916,1.822,3.595,27.949,3.037,29.277,4.716S344.819,357.9,343,357.451s-4.581,16.879-2.629,18.893,26.98,6.834,30.169,8.35-26.018-1.268-31.437,1.67c-3.616,1.96-2.158,31.655-2.158,31.655Z" opacity="0.1"/>
  <path d="M379.513,386.5c.119-3.5,9.49-10.274,16.149-11.815s14.4,3.935,26.3-1.62c8.693-4.059,19.057-23.839,24.4-30.252s20.916-27.735,29.671-35.062c8.689-7.273,20.637-4.853,27.566-.257,6.551,4.345,17.179,13.9,11.219,23.7-4.52,7.427-18.73,29.121-38.895,41.525s-30.679,17.113-37.408,22.936-10.488,15.926-26.421,22.195c-4.548,1.79-13.26,5.437-16.134,3.932-1.523-.8-.6-3.919-1.721-5.013-1.089-1.064-4.228-.1-5.036-1.284-.988-1.453.179-3.964-.556-5.346-.9-1.692-3.66-2.2-4.485-3.323-.431-.584.55-2.926-.322-5.158-.975-2.5-4.408-3.089-4.408-5.692s1.829-3.154,1.808-5.291S379.393,390,379.513,386.5Z" fill="#95ed2e"/>
  <g opacity="0.1">
    <path d="M394.928,419.217a4.044,4.044,0,0,0-.693-2.45,3.031,3.031,0,0,0-1.922-.564h0c1.414-1.222,8.938-2.463,8.973-1.9C401.317,414.784,397.227,417.529,394.928,419.217Z"/>
    <path d="M390.683,400.44c.211.49-3.666,2.654-6.5,4.158a6.692,6.692,0,0,0-.346-2.942,4.9,4.9,0,0,0-1.017-1.542C385.338,399.75,390.4,399.778,390.683,400.44Z"/>
    <path d="M388.9,411.764a3.227,3.227,0,0,0-.252-1.627,3.79,3.79,0,0,0-1.338-1.337c3.054-.363,7.547-.809,7.653-.3C395.078,409.081,391.179,410.713,388.9,411.764Z"/>
  </g>
  <path d="M381.236,390.673c-.017-1.779-1.278-1.073-1.634-2.8a37.167,37.167,0,0,0,5.875-1.409c2.32-.708,10.3-4.471,11.418-4.653s-1.62,2.915-2.166,3.175-9.845,5.381-11.684,5.8a14.329,14.329,0,0,1-1.823.24C381.231,390.906,381.237,390.787,381.236,390.673Z" opacity="0.1"/>
  <path d="M294.547,128.189c-10.517-1.968-19.614-11.859-21.99-16.446s-2.681-5.087-4.987-4.37-10.771-.581-13.008-5.39-4.223-13.093-.779-16.728,7.583-1.731,7.259-5.647-9.171-19.372-7.132-24.586,9.254-15.22,16.295-16.828,33.97-6.8,39.257-6.111,15.842-1.337,19.767.047,5.55,1.012,6.842,9.171,9.22,41.112,10.715,46.469,8.924,22.089,2.469,27.931-21.225,11.874-27.044,13.012S305.065,130.158,294.547,128.189Z" fill="#fab596"/>
  <path d="M322.161,128.722c-1.1-.243-2.332-.49-3.714-.74-35.064-6.337-52.389-44.945-54.407-47.158-.48-.528-1.561-.736-2.984-.709-.077,3.239-3.989,1.673-7.273,5.14-3.444,3.635-1.458,11.92.779,16.728s10.7,6.106,13.008,5.39,2.61-.216,4.987,4.37,11.473,14.478,21.99,16.446C305.035,130.152,316.328,129.853,322.161,128.722Z" opacity="0.1"/>
  <path d="M265.049,102.154c-2-.019-8.116-1.852-9.151-7.219s.755-8.341,2.8-8.523,5.833,2.667,3.835,4.733-2.587,4.48-.877,6.559S265.049,102.154,265.049,102.154Z" opacity="0.15"/>
  <path d="M313.892,73.127c1.682-1.371,5.158,4.97,6.605,9.2s4.12,10.172,2.627,11.51-8.534,2.946-9.1,1.081,5.618-2.85,5.618-2.85S317.018,78.708,313.892,73.127Z" opacity="0.15"/>
  <path d="M255.711,83.747c-1.577-4.413-7.37-24.415-6.5-29.316s6.612-11.815,8.537-15.864,2.773-10.321,7.777-13.363,32.155-8.1,37.128-9.614,10.684-3.959,11.063-11.454c4.357.418,5.934,8.523,5.934,8.523s6.691-7.308,3.957-12.626c5.262-.614,14.254,7.52,15.948,19.1s-4.649,22.907-18.65,26.483S287.627,44.4,278.6,47.487s-11.922,5.191-9.516,14.9c.351,1.746-5.628,6.034-2.263,11.724,2.573,3.782,8.145,19.037,7.334,21.312-.882.3-2.889.659-2.889.659S268.427,85.331,264.477,83,255.711,83.747,255.711,83.747Z" fill="#472619"/>
  <path d="M282.5,40.274c9.727,1.83,29.279,3.248,40.953-2.462,10.02-4.9,12.252-11.74,10.229-19.035-2.042,9.8-13.138,16.453-22.543,18.905S282.5,40.274,282.5,40.274Z" fill="#fff" opacity="0.2"/>
  <path d="M272.487,27.75c8.066,1.412,24.291,2.446,34.012-2.173,8.343-3.964,10.231-9.436,8.588-15.251-1.745,7.835-10.99,13.2-18.811,15.21S272.487,27.75,272.487,27.75Z" fill="#fff" opacity="0.2"/>
  <path d="M254.614,80.359c6.449-3.67,17.992-3.558,19.631-3.47s8.221-5,16.228-7.174,13.51-1.192,17.293-2.192,11.365-5.738,17.987-6.9,15.032-1.8,15.61-1.3,3.163,11.328,2.422,12.419-3.315,4.318-12.118,7.15c-6.873,2.212-13.084-2.328-18.606-1.184s-7.6,9.068-18.151,11.445c-7.933,1.787-17.3-.539-21.33-2.509s-11.241-7.063-17.869-2.894A16.032,16.032,0,0,1,254.614,80.359Z" fill="#f76346"/>
  <path d="M302.491,105.722c9.071,5.2,11.791,6.712,18.62,5.438s14.514-5.735,14.719-11.766C327.134,100.809,302.491,105.722,302.491,105.722Z" fill="#fff"/>
  <path d="M280.085,68.519l-2.2-3.585c5.805-3.125,15.05-5.785,21.489-4.823l-.933,4.136C293.334,63.485,285.1,65.82,280.085,68.519Z" fill="#472619"/>
  <path d="M316.687,60.164l-2.074-3.613c5.211-2.99,13.556-5.445,19.427-4.353l-.761,4.1C328.622,55.43,321.187,57.583,316.687,60.164Z" fill="#472619"/>
  <ellipse cx="293.657" cy="78.622" rx="3.681" ry="4.445" transform="translate(-10.133 67.323) rotate(-12.858)"/>
  <circle cx="292.159" cy="77.101" r="1.202" fill="#fff"/>
  <ellipse cx="327.511" cy="70.894" rx="3.681" ry="4.445" transform="translate(-7.564 74.663) rotate(-12.858)"/>
  <circle cx="326.013" cy="69.373" r="1.202" fill="#fff"/>
  <path d="M262.77,158.579c10.646,7.167,18.248,26.352,12.567,39s-22.636,31.008-46.891,26.414-95.682-6.222-102.032-7.8c-11.8-2.935-34.479-5.843-31.342-23.074,1.7-9.332,2.846-11.559,9.217-21.187,10.38-6.88,30.19-10.508,43.177-13,22.516-4.312,20.5-6.191,47.7-6S252.124,151.412,262.77,158.579Z" fill="#1babea"/>
  <path d="M256.859,140.9c6.394-2.188,25.857,8.816,60.536,8.816,24.91,0,18.258-4.189,27.258-7.153,10.025-3.3,21.648-3.347,25.19,3.737s13.629,26.252-30.484,29.33c-20.8,1.452-73.8-10.124-87.212-17.01-3.173-1.63-8.415-3.559-12.5-5.594C245.83,145.9,248.123,143.752,256.859,140.9Z" fill="#d84d3a"/>
  <path d="M244.033,60.7c-.438.18,34.7-17.351,36.872-14.1,2,2.971-1.168,4.651-3.634,6.33a2.057,2.057,0,0,1,2.973.939c.661,1.407-.509,3.732-2.944,5.532-7.014,5.187-22.209,12.98-27.844,15.395-7.592,3.253-14.389,5.242-11.929,5.422,11.244.826,19.52-11.929,26.027-1.084-6.507,3.253-8.676,4.338-14.1,7.591s-10.845,11.929-19.521,11.929-21.689-3.253-26.027,0c-8.613,5.9-23.934,38.144-28.536,46s-17.561,33.576-25.666,43.011c-8.044,9.363-20.509,5.732-28.755,1.981-7.8-3.546-21.44-8.337-15.81-19.018s24.7-36.854,37.429-52.241,33.454-30.706,39.649-38.164,7.864-9.976,23.858-19.52c4.566-2.725,15.087-9.8,18.436-8.676C226.289,52.619,250.908,57.874,244.033,60.7Z" fill="#95ed2e"/>
  <path d="M227.994,52.258c.184-1.069,18.473-2.064,20.6-.759,2.068,1.265,13.013,13.013,9.76,15.182s-11.929-8.676-13.014-9.76c-1.084,1.084-13.013,3.253-13.013,3.253Z" fill="#95ed2e"/>
  <path d="M277.271,52.931a2.12,2.12,0,0,1,2.68.466c-5.733,4.785-13.437,6.05-21.137,12.036l-.681-2.161C258.159,63.307,275.539,53.788,277.271,52.931Z" opacity="0.15"/>
  <path d="M275.656,46.99c1.654-.486,5.131-1.546,5.418-.121-9.208,4.8-10.327,4.009-26.46,10.8l-1.246-1.477C255.532,55.065,272.461,47.613,275.656,46.99Z" opacity="0.15"/>
  <path d="M224.513,60.7a7.178,7.178,0,0,1,3.31,1.747c1.4,1.382,5.562,2.764,7.241,4.163S241.6,77.932,241.6,77.932q2.379-.86,4.866-1.889a61.382,61.382,0,0,1-3.845-9.076s2.8,5.344,5.814,8.245q2.5-1.075,5.074-2.284l-8.881-14.792C238.5,55.449,231.632,57.318,224.513,60.7Z" opacity="0.15"/>
  <path d="M240.428,51.873a17.986,17.986,0,0,1,3.885,1.646c1.762,1.056,10.656,12.233,14.046,13.162C255.625,68.139,249.108,62,244.37,55.4l-3.942-3.529" opacity="0.15"/>
  <path d="M220.175,52.783c.184-1.069,18.474-2.064,20.6-.76,2.068,1.266,13.013,13.014,9.76,15.183s-11.929-8.676-13.013-9.76c-1.085,1.084-13.014,3.253-13.014,3.253Z" fill="#95ed2e"/>
  <path d="M100.274,206.965c1.713,1.049,3.055,2.785,7.11,4.036-.076-10.829,10.877-35.291,15.876-44.972,19.415-37.458,44.813-56.462,68.728-83.752.118-2.987,2.509-3.979,4.036-6.378,9.341-14.632,25.887-18.233,24.151-23.116-2.019,1.073-27.789,13.126-37.956,27.436-14.479,14.247-32.512,27.774-47.2,47.592-21.075,27.493-35.585,49.763-38.747,59.633C93.455,196.534,94.684,203.251,100.274,206.965Z" opacity="0.1"/>
</svg>
