<svg xmlns="http://www.w3.org/2000/svg" xmlns:xlink="http://www.w3.org/1999/xlink" width="364.668" height="364.668" viewBox="0 0 364.668 364.668">
  <defs>
    <filter id="b" x="0" y="-8087.699" width="364.668" height="32766" filterUnits="userSpaceOnUse" color-interpolation-filters="sRGB">
      <feFlood flood-color="#fff" result="bg"/>
      <feBlend in="SourceGraphic" in2="bg"/>
    </filter>
    <mask id="a" x="0" y="-8087.699" width="364.668" height="32766" maskUnits="userSpaceOnUse">
      <g filter="url(#b)"/>
    </mask>
    <radialGradient id="c" data-name="Unbenannter Verlauf 5" cx="182.334" cy="182.334" r="182.334" gradientUnits="userSpaceOnUse">
      <stop offset="0.009" stop-color="#c5ffff"/>
      <stop offset="0.243" stop-color="#9ad7df"/>
      <stop offset="0.769" stop-color="#2d728e"/>
      <stop offset="0.981" stop-color="#00486c"/>
    </radialGradient>
  </defs>
  <title>moon_v01</title>
  <g mask="url(#a)">
    <circle cx="182.334" cy="182.334" r="182.334" opacity="0.15" fill="url(#c)"/>
  </g>
  <circle cx="182.334" cy="182.334" r="55.959" fill="#c1c1c1"/>
  <ellipse cx="229.53" cy="175.713" rx="3.136" ry="6.082" fill="#b5b5b5"/>
  <path d="M225.48,188.249c-2.5-.406-5.054,2.534-5.71,6.566s.839,7.63,3.337,8.036,5.055-2.533,5.71-6.566S227.979,188.655,225.48,188.249Z" transform="translate(0)" fill="#b5b5b5"/>
  <path d="M209.988,172.025a10.1,10.1,0,0,0-2.165.236,11.129,11.129,0,0,0,.045-9.691c-2.275-5.209-7.391-8-11.425-6.239a6.6,6.6,0,0,0-3.052,2.776c-2.124-2.471-4.4-4.633-7.242-5.625A13.026,13.026,0,0,0,161.366,150a18.977,18.977,0,0,1-6.65.082c3.921-5.507,5.371-10.815,3.191-12.779-2.64-2.377-9.6,1.045-15.541,7.644-5.686,6.313-8.38,13.243-6.292,15.913-3.193,2.866-5.024,8.855-4.352,15.545.905,9.013,6.008,15.881,11.4,15.34a6.166,6.166,0,0,0,2.31-.72c.389,2.781,1.309,9.142,1.677,9.706l0,.007a3.409,3.409,0,0,0-1.874.127c-2.166.8-3.084,3.713-2.052,6.5s3.625,4.4,5.791,3.6,3.084-3.713,2.051-6.5c0,0,5.376-5.122,6.863-4.438s-.522,9.688,1.031,11.738,13.039,3.377,14.333.8-.892-16.241-.892-16.241-1.728-7.236-.482-8.04,6.774,2.311,9,1.769a3.579,3.579,0,0,0,2.573-4.5c-.623-1.487-7.337-4.663-7.075-5.467s7.035-1.126,8.2-.643,5.83,6.271,8.362,2.894c2.16-2.88,4.42-4.484,5.5-7.58a7.924,7.924,0,0,0,3.755.963,10.059,10.059,0,1,0,7.787-3.692Zm-45.84,6.722a2.316,2.316,0,1,1,2.316-2.316A2.316,2.316,0,0,1,164.148,178.747Zm22.133-6.543c-1.345.773-3.5,1.113-5.555,1.769-1.592.527-3.5-.489-5.467-1.769,0,0,6.352-.905,7.075-2.573s-2.121-3.3-2.121-3.3v0a13,13,0,0,0,4.7-5.208c2.712,1.288,5.219,2.039,7.313,1.708a11.742,11.742,0,0,0,.191,3.487A32.9,32.9,0,0,1,186.281,172.2Z" transform="translate(0)" fill="#b5b5b5"/>
</svg>
