<svg xmlns="http://www.w3.org/2000/svg" width="1919.032" height="506.73" viewBox="0 0 1919.032 506.73">
  <title>mountains_day_lunchhour_v01</title>
  <path d="M1.039,394.927H14.952L29.025,377.9s23.028-33.4,24.947-33.4,20.47-15.719,22.389-16.374,17.271-14.408,17.271-14.408l15.352-15.064s10.235-4.585,12.154-5.894,14.073-9.17,14.073-9.17l5.757-16.373s10.875-7.859,12.794-8.514,12.793-15.064,12.793-15.064,12.154-10.479,15.992-12.443,12.154-9.17,14.713-11.134,15.352-7.2,15.352-7.2,11.514-10.479,14.073-11.789S235,193.206,235,193.206l8.315,11.134,4.478,11.789,10.235,11.789,8.956,11.789,10.874,3.929,9.6,7.205s8.956,1.31,12.794,3.929,10.874,7.205,14.712,7.86,14.073,1.309,15.992,1.964,9.6,5.895,12.154,9.169,10.235,12.444,11.514,16.374,6.4,13.1,9.595,14.408l9.6,3.93,24.307-21.613s16.632-7.2,19.191-8.514,14.073-14.409,15.992-15.718,19.19-9.17,19.19-9.17,15.992-10.479,17.911-11.788,13.433-5.9,17.271-5.9,17.272.655,19.191,1.31,16.631-1.965,16.631-1.965l7.676,5.24V228.573l10.235-6.55,16.632-11.788,11.514-17.029,17.271-9.169,12.794-12.444,7.676-23.577,17.271-18.339L638,118.927l13.434-.875,15.352-8.678L693.649,93l12.794-13.1,11.514-9.169,7.676,7.2,12.154,8.515,6.4,9.824,10.235,5.239,17.271,1.31,14.042,10.1,20.5,12.825,5.117,10.479,14.073,8.514,8.955,11.789,12.794,6.549,8.316,6.55L870.2,172.9l10.235,3.93,11.514,1.965,8.956,3.274V171.593h8.955l5.118-11.134,10.235-5.894,10.874-8.514,19.19-15.064,13.194-2.619,11.114-9.441,15.352-5.623L1025,76.628l19.191-34.057,18.55-20.3,22.389-14.409L1101.764,0h11.514l14.712,10.479s13.871,9.057,17.272,9.824c0,1.965,15.352,15.064,15.352,15.064l17.911,7.859,14.712,4.584,15.992,2.62,42.859,56.98,28.785,3.929,24.948,51.085,12.793,3.93,14.713,15.718,24.947.655,12.154,14.736,26.227,6.222,20.47,25.543L1446.55,245.6l23.028,2.62,10.235,20.3,10.235,14.409,25.587,22.922,21.749,5.24,12.154-6.55.544-9.223,13.529-1.91,16.631-7.2,12.794-1.965,38.38-27.507,19.83-25.542,25.588-23.578,16.631-3.93,7.676-6.222,11.514,9.5,10.875,1.31,28.785-5.9,15.353-9.169,12.793-9.824,14.713,14.081s11.514,18.011,12.793,19.976,16.632,19.648,18.551,20.958,12.794,11.789,12.794,11.789l17.911,11.789,8.315,15.718,17.272,1.965,19.83,28.817,17.431,10.479V506.73H1.039Z" transform="translate(-1.039 0)" fill="#2f3c3f"/>
  <polygon points="75.322 328.123 82.678 332.708 90.354 340.24 96.112 346.134 91.954 331.398 85.717 319.773 75.322 328.123" fill="#f7d6b5"/>
  <polygon points="116.581 298.979 116.581 312.405 121.059 319.773 127.456 326.158 132.253 324.194 132.253 314.697 128.735 306.51 124.417 300.288 116.581 298.979" fill="#f7d6b5"/>
  <polygon points="132.253 292.102 135.452 296.359 139.29 294.23 143.767 302.908 149.844 294.721 153.043 309.13 157.521 296.359 163.278 300.616 165.836 305.855 168.075 305.528 166.156 292.102 158.16 279.658 150.164 269.834 145.367 272.781 140.889 282.605 132.253 292.102" fill="#f7d6b5"/>
  <polygon points="204.857 218.749 210.614 222.678 213.812 232.175 218.61 241.344 223.087 243.964 221.488 233.812 219.889 224.316 213.972 220.386 209.334 216.784 204.857 218.749" fill="#f7d6b5"/>
  <polygon points="210.294 252.478 213.972 259.682 217.011 259.682 220.529 269.834 227.245 273.436 227.245 268.197 221.808 260.337 223.087 250.841 216.371 247.893 210.294 252.478" fill="#f7d6b5"/>
  <path d="M231.8,247.893l1.6,14.409,4.158,7.532,1.6-9.169,7.356,9.169,7.356,12.116,1.6,7.532-5.117-2.947-4.8-1.31,1.6,9.5h-3.519l-6.077-5.239L231.8,280.64l-3.518,10.152,2.559,10.479,5.757,5.567,3.838,3.929-1.919,9.006-.64,10.97,4,9.169,1.439,9.824-5.757,6.549-2.878,10.479,2.878,6.877h4.318l5.278,8.842,8.315,7.2,3.838,2.292,1.28-7.531,2.878-4.912-3.518-4.585-4.8-1.637,1.6-12.117-2.559-5.567,1.6-4.257,3.838,5.895,6.077,4.584,4.478,4.257,1.919,11.134,1.6,14.736,4.8,2.293,2.558,10.151,4.158,16.046,8,7.532,2.879-12.444-3.2-14.081,3.2-7.532,4.158,5.567,4.477,2.293V391.325l2.879-11.134-4.478-10.807,7.037,2.62L314,376.916l6.077,2.947,7.676.328s-5.437-6.222-7.356-7.2-5.438-8.514-5.438-8.514l.96-6.222s-3.518-5.567-4.158-6.549-8.316-10.152-8.316-10.152l-10.555-12.362h-8l-2.558-3.029-.32-6.385,2.559-3.439-3.2-1.964H275.3l-4.158-10.152-5.757-11.134-1.279-7.532-6.717-10.479s-3.518-7.859-4.158-8.841-3.838-7.205-4.8-7.86-5.118-4.912-5.757-6.221-3.838-10.479-3.838-10.479h-4.478Z" transform="translate(-1.039 0)" fill="#f7d6b5"/>
  <path d="M230.579,197.867l2.183,23.5,2.878,7.2,6.077,8.841,6.717,6.55,4.478,3.929,9.915,4.258,5.437,6.221,1.919,11.462,4.8,18.011,4.478,11.133,6.077,4.913h4.158v8.677l3.518,9.006,10.555,11.379,4.158,1.883v8.351l5.757,4.912,7.356,4.584,11.834,2.947,16.312,1.31h19.19l5.757,3.6,5.118,4.584v-3.275s-.96-5.567-1.6-6.549-6.077-7.859-6.077-7.859l-2.879-7.859.32-2.948,4.478,3.6,4.158,5.9,4.8,3.275,1.6-5.895-2.238-8.678-3.838-3.766,1.6-3.274,5.757,1.391s9.6.737,10.555,0,6.4,0,6.4,0l-6.716-6.3-16.632-6.55-11.834-3.766-17.911-3.438-8.316-6.877-6.077-12.771-8.315-11.134-10.047-9.824-10.423-5.567s-10.875-1.31-11.834-2.292-16.152,0-16.152,0l-10.075-8.187-6.077-10.806-9.6-9.5-2.879-9.169-3.2-11.087Z" transform="translate(-1.039 0)" fill="#f7d6b5"/>
  <path d="M448.914,255.1l2.3,2.728,1.7,5.676,2.772,5.894,2.772,3.712h3.2l1.919-2.4a45.164,45.164,0,0,1-2.346-3.93c-.213-.654-1.492-4.8-1.066-5.894s-.64-6.986-.64-6.986l-1.35-4.166Z" transform="translate(-1.039 0)" fill="#f7d6b5"/>
  <path d="M506.864,237.087l3.2,4.585s2.345,8.042,2.985,8.059,3.838,3.729,3.838,3.729l2.559,6.986a47.463,47.463,0,0,0,3.838,2.838c.853.437,4.478,5.458,4.478,5.458l3.838,6.986v3.93H527.76s-2.772-4.8-3.412-5.24a34.926,34.926,0,0,0-5.117-1.309l-2.772,2.619,2.772,5.769v8.858l-1.706,3.93L517.1,300.4l3.412,8.295,3.625,9.606,5.757,2.62,6.4,3.056h4.9s-2.559-6.986-3.625-7.641-4.051-4.366-4.478-6.112a38.214,38.214,0,0,1-.639-8.3c.213-1.31.639-5.24,0-6.113a15.264,15.264,0,0,1-1.706-4.585,42.878,42.878,0,0,1,1.066-4.366l4.691,4.148s6.4,8.733,7.25,9.606,30.064,21.613,31.131,23.359,5.33,9.824,5.33,9.824,6.61,3.057,8.742,3.93,18.764,2.183,19.617,2.183,7.037,8.3,7.037,8.3l5.33,2.183-1.066-10.7s-4.478-12.881-5.117-13.536-4.265-9.824-4.265-9.824l-4.477,4.148s-6.184-5.239-7.037-5.894-5.544-7.859-5.757-8.733-4.9-10.26-5.544-12.116-8.1-9.278-9.169-9.933-13.006-10.479-13.22-10.7-4.691-6.55-5.543-7.641a85.969,85.969,0,0,0-6.824-6.113c-.853-.655-2.985-7.2-2.985-7.2s-9.169-3.493-10.021-3.93-10.022-6.549-10.022-6.549l1.279-1.31-7.676-5.24Z" transform="translate(-1.039 0)" fill="#f7d6b5"/>
  <path d="M596.162,174.954l-1.343,8.756,1.343,9.5s6.333,6.222,6.333,7.205,5.438,13.1,5.438,13.1l1.6,7.532,7.356,3.275v8.514l-2.559,13.426,4.158,3.475h8s11.834.782,12.794,1.437,5.757,0,5.757,0l-2.559-5.894-4.8-7.205,1.6-4.912,3.518,3.6,3.518,4.912,2.879-3.6v-5.894l-3.838-6.549,5.117.327,5.757,1.637,3.518-3.6-4.8-5.567-15.672-5.215L630,203.685l-7.356-7.532-6.077-4.912L612.41,186l-7.036,1.31-3.518-4.585-1.6-7.773-.639-3.361Z" transform="translate(-1.039 0)" fill="#f7d6b5"/>
  <path d="M627.283,127.5l3.678,4.8,5.117,2.947v3.93l5.438,2.62,2.558,3.274-3.838,6.222-4.557,3.275L638,158.822l3.838,2.947,2.239,3.93,2.239-4.257,1.919-4.912,2.559,2.947V165.7l3.518,3.93,2.559-4.258v-7.2l4.478,5.24,2.239,6.222,3.518,1.964v-4.257s-1.919-7.2,0-8.186.959-5.24,0-6.877-5.118-8.187-5.118-8.187l-2.239-6.877-2.878-7.532-.96-6.221-1.279-5.4h-9.275l2.393,6.713,2.724,4.912v5.24l1.919,5.567-.64,4.339.64,4.175.32,4.257-4.963-1.637v-9.169l-3.033-6.222-4.158-5.567-1.919-6.222-3.952-2.86Z" transform="translate(-1.039 0)" fill="#f7d6b5"/>
  <path d="M705.483,132.625V139.5l-4.477,5.322,2.239,3.52,7.356,1.965,1.6,6.549,1.6,7.205,6.077,3.6h5.118s-.64-5.567-1.6-6.222-5.757-5.9-5.757-5.9l7.357.983-1.28-6.386-5.437-7.368-2.559-5.567-4.158-4.584Z" transform="translate(-1.039 0)" fill="#f7d6b5"/>
  <path d="M891.949,178.8l-11.514-1.965L870.2,172.9l-14.712-3.274-8.316-6.55-12.794-6.549-8.955-11.789-14.073-8.514-5.117-10.479L771.69,102.825l-17.271-1.31-10.235-5.239-6.4-9.824L720.4,73.026v7.531l1.608,5.676,2.986,2.838,2.558,5.24-2.558,5.458v6.986l4.477,2.183,2.772,5.021v4.968l5.118,2.891s.426,7.423,0,8.3,1.279,10.261,1.279,10.261l4.478-4.585s3.2-3.493,2.985-4.584-1.279-6.331-1.279-6.331l4.264-1.092s1.919,4.148,1.919,5.021,1.706,6.55,1.706,6.55l7.463,1.309,3.625,5.895s-.64,5.894,0,6.549,4.9,8.733,4.9,8.733l2.559,6.331,5.543,4.584v5.021H773.4s-2.985-2.4-3.625-2.183-6.823-1.31-6.823-1.31-4.265-8.95-5.757-10.479a43.847,43.847,0,0,1-5.331-8.077,35.21,35.21,0,0,1,.426-5.458l-.213-4.148-3.469-1.31-2.714,2.838-.64,4.367-1.279,2.128,4.633,5.294,1.55,4.585,2.772,4.8,1.919,2.838v1.091l-1.066,5.021-1.706,2.62-2.558,2.183L745.463,174l-1.492,3.056a37.8,37.8,0,0,0,1.492,4.585c.427.655,5.544,8.077,5.544,8.95s2.346,13.972,2.346,13.972,3.411,12.008,3.624,12.663,2.986,10.915,2.986,11.57,6.61,5.021,6.61,5.021l3.2-3.929s-2.345-12.662-2.985-13.536-3.838-6.767-3.838-7.859,1.066-7.2,1.066-7.2l1.066-4.585-5.757-6.767-1.279-4.8,2.772,1.31,4.051,5.239s5.117.655,5.757.655,5.97-.873,6.183-.873,4.9.218,4.9.218l3.2,3.93-1.493,3.274h-5.33v3.275l4.478,3.711s5.543,5.2,5.543,5.658,3.2,3.293,3.2,3.293,3.838,2.838,3.838,3.493.426,8.078,0,8.951-2.985,6.549-2.985,6.549h-6.184L784.91,238.4l1.493,3.056s6.183,1.747,6.823,1.747,4.9-1.528,5.117,0,2.772,8.259,2.772,8.259l4.691,3.093,1.493-5.021,2.132-7.423,1.066-3.929,1.493,4.366V248l1.279,6.549,2.346,1.746h5.757s-.853-5.239,0-5.894,2.558-7.2,2.132-7.859-7.037-10.043-7.889-10.7-3.2-9.605-3.2-9.605l.64-4.585,1.492-3.274s-.852-5.022-1.279-5.677-.426-4.584-1.279-5.239-4.691-2.838-4.691-2.838l-1.28,3.275s-3.2,1.964-3.838,1.091-5.544-6.113-6.4-6.986-4.691-5.021-4.691-5.021l-2.346-2.838-.64-4.8s-2.132-1.965-2.772-2.62-1.066-4.584-1.066-4.584l3.412.655,4.264,3.929,3.625,2.838,2.133,2.183,4.477,1.965,3.412,1.31,3.838,2.62,4.265,1.091,4.264.219-.64-3.712s-4.691-5.457-4.9-6.112-1.492-3.93-1.492-3.93l2.132-.873,5.544-.655s5.757-1.092,6.4-1.092,4.691.437,4.691.437l5.971.437a8.128,8.128,0,0,1,1.706,1.528c.426.655,4.477,2.838,5.117,3.056s6.4,1.528,7.25,1.965,5.757.873,6.4.873,7.037,1.747,7.037,1.747,1.492,2.4,2.559,3.711,4.264,2.4,4.9,3.056,7.889,3.057,7.889,3.057l4.265-1.31s2.985-2.183,3.625-2.183,2.985-4.148,3.624-4.367,3.625-2.619,4.478-2.619,2.985-4.585,2.985-4.585l3.412-1.31ZM776.967,150.144l-7.2-8.35-1.279-7.368,6.556,2.456,4,10.97Zm8.636,21.449-1.279-3.929-3.679-8.842v-4.748h3.519l5.757,4.748,1.119,8.842.48,5.075Zm57.411,6.877-3.2-3.275-7.037-2.456-6.237-5.075,2.719-3,12.474,4.967,5.6,8.022Z" transform="translate(-1.039 0)" fill="#f7d6b5"/>
  <path d="M905.383,171.593l1.919,4.367s1.279,4.8,2.132,5.457,5.97,5.677,5.97,5.677l6.184,5.457s4.691,1.092,5.33,1.747,4.691.873,4.691.873l4.265-2.62,2.985,3.93V201.5L936.3,207.4l5.118,4.129,4.477,6.786,3.839,1.747v-8.533l-3.625-4.129,2.132-2.62s2.985,3.493,3.625,3.711,5.117,3.275,5.33,4.148A35.853,35.853,0,0,0,959.542,217l7.036,3.057,5.331,1.31,7.25,2.183,5.33,4.366-1.705-6.113s-6.824-6.549-8.956-7.2a100.965,100.965,0,0,1-10.448-4.585c-1.066-.655-4.051-5.458-5.544-6.986s-7.036-8.077-8.1-9.169A82.744,82.744,0,0,1,943.55,186c-.213-.655-1.919-7.423-2.132-8.078s-4.9-7.859-4.9-7.859l-2.133-5.4-2.985-2.674-.853,2.674a47.826,47.826,0,0,0,1.706,4.967,57.356,57.356,0,0,1,1.706,5.676c.213.655,1.919,3.711,1.919,3.711l-3.2.437-4.69-7.86-3.2-2.183-2.559-2.838-3.838-.436a33.419,33.419,0,0,0,.427,3.711,32.658,32.658,0,0,0,4.051,5.458c.64.436,2.559,5.457,2.559,5.457l3.2,2.839-2.985.654s-3.412-1.091-3.838-1.964-3.2-5.458-3.412-6.113a47.344,47.344,0,0,0-3.624-4.585h-9.382Z" transform="translate(-1.039 0)" fill="#f7d6b5"/>
  <path d="M956.59,130.727v7.028s.606,7.641,1.246,8.3,2.719,5.894,2.719,5.894l1.972,4.585,1.493-1.092v-8.077l-1.066-3.733,3.2,2.423L970.843,155l4.691,1.528a59.455,59.455,0,0,1-.853-6.386c0-1.692-2.559-4.354-3.838-6.516s-4.781-6.746-4.781-6.746v-4.257l-1.875-3.407Z" transform="translate(-1.039 0)" fill="#f7d6b5"/>
  <path d="M979.585,118.927l2.772,5.511s1.493,4.976,2.132,4.78,4.691,1.333,4.691,1.333h4.905v-4.585s-2.986-2.62-3.625-3.056-5.971-4.858-5.971-4.858Z" transform="translate(-1.039 0)" fill="#f7d6b5"/>
  <polygon points="1040.595 142.874 1044.753 151.29 1044.753 161.988 1042.674 167.336 1078.336 223.333 1074.818 229.228 1076.737 234.14 1095.927 262.957 1102.964 260.992 1109.041 265.249 1113.518 272.781 1113.518 300.288 1118.316 289.482 1124.393 289.154 1124.393 272.126 1130.79 271.799 1130.79 243.636 1121.514 213.182 1122.154 199.101 1128.231 186.329 1130.79 176.505 1149.98 176.833 1147.741 166.354 1141.664 156.53 1125.672 134.917 1116.717 113.304 1107.442 91.036 1100.725 81.867 1093.369 81.867 1091.45 93.983 1091.13 110.357 1095.288 118.927 1101.365 122.801 1103.284 134.262 1107.122 142.874 1112.879 144.741 1115.437 166.681 1111.28 170.283 1107.122 157.84 1101.045 150.963 1093.369 156.53 1092.089 161.988 1095.288 175.196 1097.207 181.417 1091.13 182.727 1086.972 169.629 1080.895 164.662 1076.417 167.009 1069.701 169.629 1065.223 161.988 1056.907 152.273 1052.429 146.378 1040.595 142.874" fill="#f7d6b5"/>
  <path d="M1604.55,410.318l-9.6-17.029-16.312-12.771,6.717-2.292,8.316,1.965,11.514,2.292,7.356,4.257,6.717-1.965-7.357-7.532-13.753-18.993-12.793-19.32-13.753-13.754-22.069-20.631-12.154,6.55-21.749-5.24-25.587-22.922-10.235-14.409-10.235-20.3-23.028-2.62-29.425-16.373-20.47-25.543-26.227-6.222-12.154-14.736-24.947-.655-14.713-15.718-12.793-3.93-24.948-51.085-28.785-3.929-42.859-56.98-15.992-2.62-14.712-4.584-17.911-7.859L1145.262,20.3l-17.272-9.824L1113.278,0h-11.514l2.558,10.806,6.4,3.6,2.239,5.239V39.624L1110.4,57.307l-3.038,7.859,8.476,5.24,7.356,18.338,2.558,16.373h2.559l4.158-5.894,3.2,3.6,1.919,11.789,28.146,25.87,2.239,21.5-2.559,9.278,7.037,3.275,2.239,6.549-4.158,4.257,2.559,62.546h5.757l3.838-8.841,6.077,2.62,5.117,9.824,5.437,8.514h4.158V251.5l2.559.982,5.757,18.011,7.676,6.222,8.956,4.257,5.757,7.2,5.757,9.824,1.279,4.912h-4.158l-6.4-9.5-6.077-7.86-5.438-2.292,2.239,9.169,6.077,7.859,6.4,8.515,10.874,6.549,1.28,8.187-3.518,3.274,1.6,8.514,16.951,21.941,3.2,13.426-5.438,2.292-4.477-9.169-3.2,9.169-5.757-1.964,2.879-15.392-5.118-13.1-10.235-2.947-1.279-10.4-7.356-8.923-6.077-4.585-6.4,13.508-2.239,20.222,2.559,18.01-3.2,16.7-.32,14.736,2.878,5.567,5.118-5.567,3.518-5.894,3.838,3.6-2.879,10.479,2.879,9.5,8.955,12.443,4.478,12.444h6.717l-.32-10.479L1236.1,412.61l5.437-1.637,3.2,2.947,1.6-10.152,6.716-.655.96-14.081,3.838-5.894,4.158,5.894,4.8,13.754s6.077,12.771,7.037,14.081,14.073,9.824,14.073,9.824V394.272l7.036,1.965,3.838,5.566,11.195,2.948,6.716,5.567,8,3.6,1.919-11.134h13.753s13.753,2.947,15.033,3.6,9.6,4.585,9.6,4.585,8,9.169,8.955,9.824,10.875,10.151,10.875,10.151l6.4,4.585V421.779l-21.43-31.437L1345.8,352.028l-5.757-24.887s-3.518-12.444-3.518-13.426,1.919-9.825,1.919-9.825l7.356,8.515,8,14.408s8.315,12.772,8.635,13.754,14.393,12.771,14.393,12.771l11.514,11.789,10.235,6.222,12.154,7.532,1.6-6.877,3.518-13.754,5.757,6.877,4.478,12.116,13.753,11.462s11.834,7.2,12.794,7.2,10.874.655,10.874.655l10.235,4.912,8.955,7.2,3.2-11.789,5.757,1.638,3.838,5.567,6.4-5.24,4.478,10.152,5.437,13.753,11.514-2.619,8.316,11.461,16.312,6.549,16.951,7.532-5.757-15.391-10.555-10.151,13.114-2.947,17.271,2.292,12.154,3.6,12.793,7.2,10.875.328,11.194,5.239,11.514,7.859,7.037,1.965,1.279-4.257Zm-444.9-295.7,16.952,9.687-3.838,2.1Zm18.551,28.26-10.075-9.922,39.5,27.507-7.356,6.877Zm38.061,100.435-15.992-17.356-8-4.585-7.037-1.637-4.477-44.208h4.477l8.316,35.694,29.425,27.835Zm11.834-91.691L1210.829,126.4l-3.2-23.578,23.988,40.049Zm206.935,172.9L1418.4,309.785l-22.069-2.62-17.271-37.659,3.2-2.292,11.194,7.859,21.43,2.293,7.676,19.648,16.951,27.507Zm11.195-43.881-4.478-2.619h6.717Zm56.931,32.747-21.749-4.912L1468.3,303.89l-.32-13.426,4.158-8.186-15.353-5.567-13.433-9.5,27.826,4.585,11.834,12.771L1505.4,308.8Z" transform="translate(-1.039 0)" fill="#f7d6b5"/>
  <polygon points="1692 240.362 1695.838 240.362 1696.904 244.073 1699.037 246.038 1699.037 247.784 1701.169 250.841 1704.367 252.805 1704.367 256.517 1699.889 256.517 1694.772 250.622 1690.934 246.911 1688.375 241.235 1692 240.362" fill="#f7d6b5"/>
  <path d="M1775.557,335.327c-.64-.218-6.823-5.021-6.823-5.021l-1.493-6.331-2.132-4.366,2.346-2.4,3.2,5.894L1773,326.6l5.331.437,3.2-1.747-5.117-5.894s-4.9-9.824-4.9-10.479v-10.7l-5.118-7.913,3.2-2.129,2.772,3.711,5.117,1.965V290.3l-6.4-10.861-19.4-12.226L1744,257.608l5.97-1.091-.213-4.366s-15.566-16.81-15.992-17.465-1.066-8.951-1.066-8.951l-7.037-6.55-7.889-4.584-5.117-7.641-11.515-9.5-6.84,5.545,1.936,4.825,6.61,4.585,1.279,26.634.853,8.732,4.265,5.676,1.706,6.331-6.61,1.747H1695.6l-4.264-6.113-4.691-.218-1.279,12.007-1.919,12.662,6.823,10.425,8.955,3.111,2.133,7.422,8.529,4.585,10.448,2.183,1.066-5.676-7.89-7.423-8.529-4.2s-1.919-6.277-2.558-6.932-4.9-8.3-4.9-8.3l4.052-7.859h4.051l.427,10.261,2.771,6.549,3.2,6.277,8.1,1.146,5.757,5.458,4.9,5.239,9.168,2.838,2.772,5.24,2.346,6.986h-3.625l-4.9-6.113-2.772,6.113-.853,5.676-3.625,2.619,2.985,3.684,16.632,3.521,15.139,6.767,4.9,3.93h9.382l8.956,1.31v-6.549S1776.2,335.546,1775.557,335.327Zm-51.707-71.715v2.947l-3.678-1.31-1.44-2.783v-3.439l-3.518-4.093-2.079-5.567,2.879,1.8,4.158.164,3.678,4.421-1.439,3.274Zm30.7,47.974s-3.518-3.6-3.678-4.257-4-4.421-4.478-4.585-3.518-3.111-4-3.274a14.97,14.97,0,0,1-2.239-2.456l-3.039-3.111-1.759-7.86,3.358-2.456,1.28,3.439s4.477,2.783,5.437,3.275,1.759,4.912,1.919,5.567,5.117,5.73,5.757,6.221,2.4,4.912,2.4,4.912Z" transform="translate(-1.039 0)" fill="#f7d6b5"/>
  <polygon points="1770.894 225.735 1773.452 231.848 1776.651 233.376 1776.651 229.555 1774.945 224.643 1770.894 225.735" fill="#f7d6b5"/>
  <path d="M1780.461,183.382l1.493,11.789,2.772,8.3v25.542l7.249,7.641,1.706,10.261,4.9,5.894v11.789l8.316,8.078s8.316.437,8.316,1.091,1.919,9.824,1.919,9.824l-2.345,3.93-8.529-6.768-2.346,4.367,4.691,6.331,7.037,13.535,3.2,15.064,5.544,9.141,4.9-3.9-7.463-23.359,1.493-2.62,7.463,10.7,12.367,19.184,2.132-7.613,4.478-.655-6.824-15.937-3.411-10.479,8.955,4.366,7.463,11.789,3.412,18.529,6.823,13.563,3.838-5.021,5.757,2.4,2.772,8.951,10.235-2.4,10.022,7.641,9.168,6.331,8.743,5.894,2.132-3.275-10.661-13.535,11.887,9.169V318.954l-17.431-10.479-19.83-28.817-17.272-1.965-8.315-15.718-17.911-11.789-31.345-32.747-12.793-19.976Z" transform="translate(-1.039 0)" fill="#f7d6b5"/>
</svg>
