<svg xmlns="http://www.w3.org/2000/svg" xmlns:xlink="http://www.w3.org/1999/xlink" width="1919.032" height="507.271" viewBox="0 0 1919.032 507.271">
  <defs>
    <linearGradient id="a" data-name="Unbenannter Verlauf 79" x1="1649.579" y1="203.081" x2="1649.579" y2="284.297" gradientUnits="userSpaceOnUse">
      <stop offset="0.009" stop-color="#ed4b95"/>
      <stop offset="0.142" stop-color="#e03e87"/>
      <stop offset="0.495" stop-color="#c31f68"/>
      <stop offset="0.793" stop-color="#b00d55"/>
      <stop offset="1" stop-color="#aa064e"/>
    </linearGradient>
    <linearGradient id="b" x1="1017.854" y1="-0.541" x2="1017.854" y2="171.052" xlink:href="#a"/>
    <linearGradient id="c" x1="886.194" y1="403.253" x2="886.194" y2="403.253" xlink:href="#a"/>
    <linearGradient id="d" x1="123.92" y1="192.775" x2="123.92" y2="394.45" xlink:href="#a"/>
    <linearGradient id="e" x1="464.022" y1="235.326" x2="464.022" y2="277.662" xlink:href="#a"/>
    <linearGradient id="f" x1="587.76" y1="118.504" x2="587.76" y2="240.491" xlink:href="#a"/>
    <linearGradient id="g" x1="697.822" y1="70.83" x2="697.822" y2="118.956" xlink:href="#a"/>
    <linearGradient id="h" x1="1772.706" y1="182.922" x2="1772.706" y2="201.915" xlink:href="#a"/>
  </defs>
  <title>mountains_evening_v01</title>
  <path d="M0,394.457H13.913l14.073-17.029s23.028-33.4,24.947-33.4,20.47-15.718,22.389-16.373,17.271-14.409,17.271-14.409l15.353-15.063s10.234-4.585,12.153-5.895,14.073-9.169,14.073-9.169l5.757-16.373s10.875-7.859,12.794-8.514,12.794-15.064,12.794-15.064,12.153-10.479,15.991-12.444,12.154-9.169,14.713-11.133,15.352-7.205,15.352-7.205,11.514-10.479,14.073-11.789,8.316-7.859,8.316-7.859l8.316,11.134,4.478,11.789,10.234,11.789,8.956,11.789,10.874,3.929,9.6,7.205s8.955,1.309,12.793,3.929,10.875,7.2,14.713,7.859,14.073,1.31,15.992,1.965,9.6,5.895,12.153,9.169,10.235,12.444,11.515,16.374,6.4,13.1,9.6,14.408l9.595,3.93,24.308-21.613s16.631-7.2,19.19-8.514a2.565,2.565,0,0,0,.484-.216l15.992-15.719c1.349-.921,10.051-5.061,15.1-7.385,2.13-.981,3.608-1.568,3.608-1.568s15.992-10.479,17.911-11.789,13.434-5.894,17.272-5.894,17.271.655,19.19,1.31,16.632-1.965,16.632-1.965l7.676,5.24V228.1l10.234-6.55L557,209.764l11.514-17.028,17.272-9.169,12.793-12.444,7.676-23.578,17.272-18.338,13.433-10.75,13.433-.875,15.352-8.678,26.867-16.373,12.793-13.1,11.514-9.169,7.677,7.2,12.153,8.514,6.4,9.825,10.235,5.239,17.271,1.31,14.713,9.169,19.83,13.754,5.117,10.479,14.073,8.514,8.956,11.789,12.793,6.549,8.316,6.549,14.713,3.275,10.235,3.93,11.514,1.965,8.955,3.274V171.123h8.956l5.117-11.134,10.235-5.894,10.874-8.514,19.191-15.064,13.193-2.62,11.115-9.44,15.352-5.623,30.065-36.677,19.19-34.056,18.551-20.3,22.388-14.409L1100.725-.47h11.514l14.713,10.479s17.271,7.859,17.271,9.824S1159.575,34.9,1159.575,34.9l17.911,7.86L1192.2,47.34l15.992,2.62,42.858,56.979,28.786,3.93,24.947,51.085,12.794,3.93,14.712,15.718,24.948.655,12.153,14.736,26.227,6.222,20.47,25.543,29.425,16.373,23.028,2.62,10.235,20.3,10.235,14.408,25.587,22.923,21.749,5.24,12.154-6.55.544-9.223,13.529-1.911,16.632-7.2L1592,283.772l38.381-27.507,19.83-25.543,25.587-23.577,16.632-3.93,7.676-6.222,11.514,9.5,10.874,1.31,28.786-5.9,15.352-9.169,12.794-9.824,14.712,14.081s11.514,18.011,12.794,19.976,16.631,19.648,18.55,20.958,12.794,11.789,12.794,11.789l17.911,11.788,8.316,15.719,17.271,1.965,19.83,28.817,17.431,10.479V506.73H0Z" transform="translate(0 0.541)" fill="#2f3c3f"/>
  <polygon points="1707.138 233.427 1702.998 210.446 1693.259 203.081 1692.427 203.756 1675.805 207.666 1650.218 231.244 1630.388 256.787 1592.007 284.294 1610.881 283.639 1626.752 280.692 1644.781 279.382 1651.139 268.878 1658.881 264.62 1666.623 263.459 1674.365 252.62 1684.043 248.491 1688.385 241.287 1707.138 233.427" fill="#f7d6b5" opacity="0.5"/>
  <path d="M961,154.479c-.387,0-18.29,3.871-18.29,3.871l-12.194,3.484-5.613,3.581-7.585.18-3.624,5.457h-4.9l5.118-11.134,10.235-5.894,10.874-8.514,19.191-15.064,13.193-2.619,11.114-9.441,15.353-5.623,30.064-36.676,19.191-34.057,18.55-20.3,22.389-14.409,16.632-7.859h11.514l14.712,10.479s17.272,7.859,17.272,9.824-37.9,44.863-37.9,44.863l-12.954,16.7-2.239,28.49-16.774,10.151-20.517,3.794-27.316,4.916-17.974-2.815-15.5-.437-9.6.437-9.741,2.815H963.116l-2.019,12.06Z" transform="translate(0 0.541)" fill="#f7d6b5" opacity="0.5"/>
  <path d="M886.194,403.253" transform="translate(0 0.541)" fill="#f7d6b5" opacity="0.5"/>
  <path d="M150.487,269.712l-4.842,18.735-10.451,6-8.323,2.71-9.967,1.7v13.426l-11.517,2.293-7.935,3.29-11.413,1.785,10.395,26.361L83.9,361.608l-14.322,8.9L59.129,382.318l-15.258,7.613-29.893,4.487L28.05,377.39s21.692-31.6,24.851-33.338c1.919,0,20.47-15.718,22.389-16.373S92.561,313.27,92.561,313.27l15.352-15.063s10.235-4.585,12.154-5.895,14.073-9.169,14.073-9.169L139.9,266.77s10.875-7.859,12.794-8.514,12.793-15.064,12.793-15.064,12.154-10.479,15.992-12.444,12.154-9.169,14.713-11.134,15.352-7.2,15.352-7.2,11.514-10.479,14.073-11.789,8.316-7.859,8.316-7.859l-.607,3.749-3.46,1.235,1.524,15.6-10.064,3.312H209.657s5.408,11.527,6.182,11.527,4.387,10.064,4.387,10.064l3.184,5.589-6.717,3.93-3.112,9.126L197.9,260.543l-13.161,3.517-15.484,1.548-11.032,4.1Z" transform="translate(0 0.541)" fill="#f7d6b5" opacity="0.5"/>
  <path d="M510.9,240.905s-3.84-3.865-5.078-4.288c-1.919-.655-15.739-1.291-19.577-1.291s-14.966,4.566-16.885,5.875-17.911,11.789-17.911,11.789l-3.608,1.568c-5.729,2.682-12.6,5.923-15.1,7.385l-16.379,15.87s45.143-5.217,44.609-4.852c-1.919,1.31-3.87-23.771-3.87-23.771l15.281-.059,11.226-2.323,14.806-1.161Z" transform="translate(0 0.541)" fill="#f7d6b5" opacity="0.5"/>
  <polygon points="640.806 121.407 644.702 118.407 636.991 118.959 623.558 129.71 606.287 148.048 598.61 171.626 585.817 184.069 568.546 193.239 557.031 210.267 540.4 222.056 530.165 228.605 530.165 240.394 546.226 236.923 555.258 232.794 565.581 233.052 593.873 228.149 601.71 221.439 608.165 218.029 615.903 210.085 596.548 183.246 598.61 171.626 612.806 169.827 624.161 165.017 637.346 159.177 645.355 143.859 634.034 121.933 640.806 121.407" fill="#f7d6b5" opacity="0.5"/>
  <polyline points="743.145 96.372 736.748 86.548 724.595 78.034 716.918 70.83 705.404 79.999 692.611 93.098 665.744 109.471 652.499 116.958 653.945 118.472 659.452 118.472 664.387 117.31 671.839 118.956 680.452 118.472 692 116.472 700.707 114.171 708.449 113.881 718.71 110.665 725.935 104.214 735.806 108.601 743.145 96.372" fill="#f7d6b5" opacity="0.5"/>
  <path d="M1782.258,195.737c-1.279-1.965,11.877,1.266,11.877,1.266l-14.712-14.081-12.794,9.824-15.352,9.169,9.3-.081,6.1-.532,7.694-2.952Z" transform="translate(0 0.541)" fill="#f7d6b5" opacity="0.5"/>
  <polygon points="1707.144 233.43 1703.004 210.449 1693.259 203.081 1692.443 203.74 1675.811 207.67 1650.224 231.247 1630.394 256.79 1592.013 284.297 1610.887 283.642 1626.758 280.695 1644.787 279.385 1651.145 268.881 1658.887 264.623 1666.629 263.462 1674.371 252.623 1684.049 248.494 1688.392 241.29 1707.144 233.43" opacity="0.5" fill="url(#a)"/>
  <path d="M961,154.479c-.387,0-18.29,3.871-18.29,3.871l-12.194,3.484-5.613,3.581-7.585.18-3.624,5.457h-4.9l5.118-11.134,10.235-5.894,10.874-8.514,19.191-15.064,13.193-2.619,11.114-9.441,15.353-5.623,30.064-36.676,19.191-34.057,18.55-20.3,22.389-14.409,16.632-7.859h11.514l14.712,10.479s-8.274,15.221-8.274,17.186-12.355,37.5-12.355,37.5l-12.954,16.7-2.239,28.49-16.774,10.151-20.517,3.794-27.316,4.916-17.974-2.815-15.5-.437-4.241.193-5.355.244-9.741,2.815H963.116l-2.019,12.06Z" transform="translate(0 0.541)" opacity="0.5" fill="url(#b)"/>
  <path d="M886.194,403.253" transform="translate(0 0.541)" opacity="0.5" fill="url(#c)"/>
  <path d="M150.422,269.744l-4.841,18.735-10.452,6-8.323,2.71-9.967,1.7v13.426l-11.516,2.293-7.936,3.29-11.412,1.786,10.4,26.361L83.839,361.64l-14.323,8.9L59.065,382.35l-15.259,7.613L13.913,394.45l14.073-17.028s21.691-31.6,24.851-33.337c1.919,0,20.469-15.719,22.388-16.374S92.5,313.3,92.5,313.3l15.352-15.064s10.235-4.584,12.154-5.894,14.073-9.169,14.073-9.169l5.757-16.374s10.874-7.859,12.793-8.514,12.794-15.064,12.794-15.064,12.154-10.479,15.992-12.443,12.154-9.169,14.712-11.134,15.353-7.2,15.353-7.2,11.514-10.479,14.072-11.788,8.379-7.879,8.379-7.879l-.67,3.769-3.459,1.234,1.524,15.6L221.258,216.7H209.592s5.408,11.526,6.182,11.526,4.387,10.065,4.387,10.065l3.185,5.589-6.717,3.929-3.113,9.127-15.677,3.644-13.162,3.517-15.483,1.548-11.033,4.1Z" transform="translate(0 0.541)" opacity="0.5" fill="url(#d)"/>
  <path d="M511.29,240.753s-4.227-3.713-5.465-4.136c-1.919-.655-15.739-1.291-19.577-1.291-3.484.1-14.665,4.378-16.584,5.688-1.178.8-7.729,5.007-12.558,8.176-3.038,1.994-5.267,3.649-5.267,3.649l-4,1.719c-5.925,2.74-11.517,5.377-15.1,7.385l-15.992,15.719s34.279-3.824,43.212-4.663a12.75,12.75,0,0,0,1.4-.189c-1.919,1.309-4.257-23.62-4.257-23.62l15.281-.059,11.226-2.323,14.806-1.161Z" transform="translate(0 0.541)" opacity="0.5" fill="url(#e)"/>
  <polygon points="640.806 121.504 644.702 118.504 636.991 119.056 623.558 129.806 606.287 148.145 598.61 171.722 585.817 184.166 568.546 193.335 557.031 210.364 540.4 222.153 530.165 228.702 530.165 240.491 546.226 237.02 555.258 232.891 565.581 233.149 593.873 228.246 601.71 221.536 608.165 218.126 615.903 210.181 596.548 183.343 598.61 171.722 612.806 169.923 624.161 165.114 637.346 159.274 645.355 143.956 634.034 122.029 640.806 121.504" opacity="0.5" fill="url(#f)"/>
  <polyline points="743.145 96.372 736.748 86.548 724.595 78.034 716.918 70.83 705.404 79.999 692.611 93.098 665.744 109.471 652.499 116.958 653.945 118.472 659.452 118.472 664.387 117.31 671.839 118.956 680.452 118.472 692 116.472 700.707 114.171 708.449 113.881 718.71 110.665 725.935 104.214 735.806 108.601 743.145 96.372" opacity="0.5" fill="url(#g)"/>
  <path d="M1782.258,195.737c-1.279-1.965,11.877,1.266,11.877,1.266l-14.712-14.081-12.794,9.824-15.352,9.169,9.3-.081,6.1-.532,7.694-2.952Z" transform="translate(0 0.541)" opacity="0.5" fill="url(#h)"/>
  <polygon points="1444.73 147.72 1436.596 150.661 1444.974 152.812 1447.915 160.946 1450.066 152.568 1458.199 149.627 1449.822 147.476 1446.881 139.343 1444.73 147.72" fill="#dcffc5" opacity="0.6"/>
  <polygon points="75.344 328.16 82.701 332.744 90.377 340.276 96.134 346.17 91.976 331.434 85.739 319.81 75.344 328.16" fill="#606060"/>
  <polygon points="116.888 299.398 116.888 312.824 121.365 320.192 127.762 326.578 132.56 324.613 132.56 315.116 129.042 306.93 124.724 300.708 116.888 299.398" fill="#606060"/>
  <polygon points="132.56 292.537 135.758 296.794 139.596 294.666 144.074 303.344 150.151 295.157 153.349 309.566 157.827 296.794 163.584 301.051 166.143 306.291 168.382 305.963 166.463 292.537 158.467 280.093 150.471 270.269 145.673 273.217 141.195 283.041 132.56 292.537" fill="#606060"/>
  <polygon points="204.824 218.749 210.582 222.678 213.78 232.175 218.578 241.344 223.055 243.964 221.456 233.812 219.857 224.316 213.94 220.386 209.302 216.784 204.824 218.749" fill="#606060"/>
  <polygon points="210.262 252.478 213.94 259.682 216.978 259.682 220.497 269.834 227.213 273.436 227.213 268.197 221.776 260.337 223.055 250.841 216.339 247.893 210.262 252.478" fill="#606060"/>
  <path d="M230.731,247.353l1.6,14.408,4.157,7.532,1.6-9.169,7.356,9.169,7.356,12.116,1.6,7.532-5.117-2.947-4.8-1.31,1.6,9.5h-3.519l-6.077-5.239-5.757-8.842-3.518,10.152,2.559,10.479,5.757,5.567,3.838,3.929-1.919,9.006-.64,10.97,4,9.169,1.44,9.824-5.758,6.549-2.878,10.479,2.878,6.877h4.318l5.278,8.842,8.315,7.2,3.838,2.293,1.28-7.532L262.4,379l-3.518-4.585-4.8-1.637,1.6-12.116-2.559-5.567,1.6-4.258,3.838,5.895,6.077,4.584,4.478,4.258,1.919,11.133,1.6,14.737,4.8,2.292,2.559,10.151,4.157,16.046,8,7.532,2.879-12.444-3.2-14.081,3.2-7.532,4.158,5.567,4.478,2.293V390.784l2.878-11.134-4.478-10.807,7.037,2.62,3.838,4.912,6.077,2.947,7.676.328s-5.437-6.222-7.356-7.2-5.438-8.514-5.438-8.514l.96-6.222s-3.518-5.567-4.158-6.549-8.316-10.152-8.316-10.152l-10.554-12.361h-8l-2.559-3.03-.32-6.385,2.559-3.439-3.2-1.964h-6.077l-4.157-10.152-5.758-11.134-1.279-7.532-6.717-10.479s-3.518-7.859-4.157-8.841-3.838-7.2-4.8-7.86-5.117-4.912-5.757-6.221-3.838-10.479-3.838-10.479H233.29Z" transform="translate(0 0.541)" fill="#606060"/>
  <path d="M229.534,197.38l2.182,23.5,2.879,7.2,6.077,8.842,6.716,6.549,4.478,3.93,9.915,4.257,5.437,6.222,1.919,11.461,4.8,18.011,4.478,11.134,6.077,4.912h4.158v8.678l3.518,9,10.554,11.38,4.158,1.883v8.35l5.757,4.912,7.357,4.585,11.834,2.947,16.312,1.31h19.19l5.757,3.6,5.117,4.584v-3.274s-.959-5.567-1.6-6.55-6.077-7.859-6.077-7.859l-2.878-7.859.32-2.947,4.477,3.6,4.158,5.894,4.8,3.275,1.6-5.894-2.239-8.678-3.838-3.766,1.6-3.275,5.757,1.392s9.6.737,10.555,0,6.4,0,6.4,0l-6.717-6.3-16.631-6.549-11.835-3.766-17.91-3.439-8.316-6.876-6.077-12.772-8.316-11.134-10.047-9.824-10.423-5.567s-10.874-1.31-11.834-2.292-16.152,0-16.152,0L266.9,251.99l-6.076-10.806-9.6-9.5-2.878-9.169-3.2-11.087Z" transform="translate(0 0.541)" fill="#606060"/>
  <path d="M447.844,254.558l2.3,2.728,1.706,5.676,2.771,5.894,3.043,4.34,3.625-.018,1.222-3.012a45.533,45.533,0,0,1-2.346-3.929c-.213-.655-1.492-4.8-1.066-5.9s-.639-6.986-.639-6.986l-1.351-4.166Z" transform="translate(0 0.541)" fill="#606060"/>
  <path d="M505.793,236.546l3.2,4.585s2.346,8.042,2.985,8.059,3.838,3.729,3.838,3.729l2.559,6.986a47.67,47.67,0,0,0,3.838,2.839c.853.436,4.478,5.457,4.478,5.457l3.838,6.986v3.93h-3.838s-2.772-4.8-3.412-5.24a34.926,34.926,0,0,0-5.117-1.309l-2.772,2.619,2.772,5.769v8.858l-1.706,3.93-.426,6.113,3.411,8.295,3.625,9.606,5.757,2.62,6.4,3.056h4.9s-2.559-6.986-3.625-7.641-4.051-4.366-4.478-6.112a38.276,38.276,0,0,1-.639-8.3c.213-1.31.639-5.24,0-6.113a15.264,15.264,0,0,1-1.706-4.585,42.945,42.945,0,0,1,1.066-4.366l4.691,4.148s6.4,8.733,7.25,9.606,30.065,21.613,31.131,23.359,5.33,9.824,5.33,9.824,6.61,3.057,8.743,3.93,18.763,2.183,19.616,2.183,7.037,8.3,7.037,8.3l5.33,2.183-1.066-10.7s-4.477-12.881-5.117-13.536-4.265-9.824-4.265-9.824l-4.477,4.148s-6.184-5.239-7.037-5.894-5.544-7.859-5.757-8.733-4.9-10.26-5.544-12.116-8.1-9.278-9.168-9.933-13.007-10.479-13.22-10.7-4.691-6.55-5.544-7.641a85.969,85.969,0,0,0-6.824-6.113c-.852-.655-2.985-7.2-2.985-7.2s-9.168-3.493-10.021-3.93-10.022-6.549-10.022-6.549l1.279-1.31-7.676-5.24Z" transform="translate(0 0.541)" fill="#606060"/>
  <path d="M595.091,174.413l-1.343,8.756,1.343,9.5s6.333,6.222,6.333,7.205,5.438,13.1,5.438,13.1l1.6,7.532,7.356,3.275v8.514l-2.559,13.426,4.158,3.475h8s11.834.782,12.794,1.437,5.757,0,5.757,0l-2.559-5.894-4.8-7.205,1.6-4.912,3.518,3.6,3.518,4.912,2.879-3.6v-5.894l-3.838-6.549,5.117.327,5.757,1.637,3.519-3.6-4.8-5.567-15.672-5.214-9.275-9.522-7.357-7.531L615.5,190.7l-4.158-5.24-7.036,1.31-3.518-4.585-1.6-7.773-.64-3.361Z" transform="translate(0 0.541)" fill="#606060"/>
  <path d="M626.212,126.961l3.678,4.8,5.117,2.947v3.93l5.438,2.62L643,144.527l-3.838,6.222-4.557,3.275,2.319,4.257,3.838,2.947,2.238,3.93,2.239-4.257,1.919-4.912,2.559,2.947v6.222l3.518,3.93,2.559-4.257v-7.2l4.478,5.24,2.239,6.222,3.518,1.964V166.8s-1.919-7.2,0-8.186.959-5.24,0-6.877-5.118-8.187-5.118-8.187l-2.238-6.877-2.879-7.532-.96-6.221-1.4-5.513-8.9.561,2.132,6.261,2.724,4.912v5.24l1.919,5.567-.639,4.339.639,4.175.32,4.257-4.963-1.637v-9.169l-3.033-6.222-4.158-5.567-1.919-6.222-3.952-2.86Z" transform="translate(0 0.541)" fill="#606060"/>
  <path d="M704.413,132.084v6.877l-4.478,5.321,2.239,3.52,7.356,1.965,1.6,6.549,1.6,7.2,6.077,3.6h5.118s-.64-5.567-1.6-6.222-5.757-5.9-5.757-5.9l7.357.983-1.28-6.386-5.437-7.368-2.559-5.567-4.158-4.584Z" transform="translate(0 0.541)" fill="#606060"/>
  <path d="M890.878,178.257l-11.514-1.965-10.235-3.93-14.712-3.274-8.316-6.55-12.794-6.549L824.352,144.2l-14.073-8.514-5.117-10.479-34.543-22.923-17.271-1.31-10.235-5.239-6.4-9.824L719.329,72.485v7.531l1.609,5.676,2.985,2.838,2.558,5.24-2.558,5.458v6.986L728.4,108.4l2.772,5.021v4.968l5.118,2.891s.426,7.423,0,8.3,1.279,10.261,1.279,10.261l4.478-4.585s3.2-3.493,2.985-4.584-1.279-6.331-1.279-6.331l4.264-1.092s1.919,4.148,1.919,5.021,1.706,6.55,1.706,6.55l7.463,1.309,3.625,5.895s-.64,5.894,0,6.549,4.9,8.733,4.9,8.733l2.559,6.331,5.544,4.584v5.022h-3.412s-2.985-2.4-3.625-2.184-6.823-1.309-6.823-1.309-4.265-8.951-5.757-10.479a43.884,43.884,0,0,1-5.331-8.078,35.192,35.192,0,0,1,.427-5.458L751,141.58l-3.469-1.31-2.714,2.838-.64,4.367L742.9,149.6l4.633,5.294,1.55,4.585,2.772,4.8,1.919,2.838v1.091l-1.066,5.022L751,175.855l-2.558,2.183-4.052-4.584L742.9,176.51a37.8,37.8,0,0,0,1.492,4.585c.427.655,5.544,8.077,5.544,8.951s2.346,13.972,2.346,13.972,3.411,12.007,3.625,12.662,2.985,10.915,2.985,11.57,6.61,5.021,6.61,5.021l3.2-3.929s-2.345-12.662-2.985-13.536-3.838-6.767-3.838-7.859,1.066-7.2,1.066-7.2l1.066-4.585-5.757-6.767-1.279-4.8,2.772,1.31,4.051,5.239s5.117.655,5.757.655,5.97-.873,6.184-.873,4.9.218,4.9.218l3.2,3.93-1.492,3.274h-5.331v3.275l4.478,3.711s5.543,5.2,5.543,5.658,3.2,3.293,3.2,3.293,3.838,2.838,3.838,3.493.426,8.078,0,8.951-2.985,6.549-2.985,6.549h-6.184l-1.066,4.585,1.493,3.056s6.183,1.747,6.823,1.747,4.9-1.528,5.117,0,2.772,8.259,2.772,8.259l4.691,3.093,1.493-5.021,2.132-7.423,1.066-3.929L810.919,242v5.458l1.279,6.549,2.346,1.747H820.3s-.853-5.24,0-5.9,2.558-7.2,2.132-7.859-7.036-10.042-7.889-10.7-3.2-9.606-3.2-9.606l.64-4.585,1.493-3.274s-.853-5.022-1.28-5.677-.426-4.584-1.279-5.239-4.691-2.838-4.691-2.838l-1.28,3.275s-3.2,1.964-3.838,1.091-5.544-6.113-6.4-6.986-4.691-5.021-4.691-5.021l-2.346-2.838-.64-4.8s-2.132-1.965-2.771-2.62S783.2,177.6,783.2,177.6l3.412.655,4.265,3.929,3.624,2.838,2.133,2.184,4.477,1.964,3.412,1.31,3.838,2.62,4.265,1.091,4.264.219-.64-3.711s-4.69-5.458-4.9-6.113-1.492-3.93-1.492-3.93l2.132-.873,5.544-.655s5.757-1.092,6.4-1.092,4.691.437,4.691.437l5.97.437a8.128,8.128,0,0,1,1.706,1.528c.426.655,4.477,2.838,5.117,3.056s6.4,1.528,7.25,1.965,5.757.873,6.4.873,7.037,1.747,7.037,1.747,1.493,2.4,2.559,3.711,4.264,2.4,4.9,3.056,7.889,3.057,7.889,3.057l4.265-1.31s2.985-2.183,3.625-2.183,2.985-4.148,3.624-4.366,3.625-2.62,4.478-2.62,2.985-4.585,2.985-4.585l3.412-1.31ZM775.9,149.6l-7.2-8.35-1.279-7.368,6.556,2.456,4,10.97Zm8.636,21.449-1.279-3.929-3.678-8.842v-4.748h3.518l5.757,4.748,1.119,8.842.48,5.076Zm57.411,6.877-3.2-3.274-7.037-2.456-6.237-5.076,2.719-3,12.474,4.967,5.6,8.023Z" transform="translate(0 0.541)" fill="#606060"/>
  <path d="M904.312,171.052l1.919,4.367s1.279,4.8,2.132,5.457,5.97,5.677,5.97,5.677l6.184,5.457s4.691,1.092,5.33,1.747,4.691.873,4.691.873l4.265-2.62,2.985,3.93v5.021l-2.559,5.895,5.118,4.129,4.478,6.786,3.838,1.747v-8.533l-3.625-4.129,2.132-2.62s2.985,3.493,3.625,3.711,5.117,3.275,5.331,4.148a35.731,35.731,0,0,0,2.345,4.366l7.036,3.057,5.331,1.31,7.25,2.183,5.33,4.366-1.705-6.113s-6.824-6.549-8.956-7.2a100.965,100.965,0,0,1-10.448-4.585c-1.066-.655-4.051-5.457-5.544-6.986s-7.036-8.077-8.1-9.169a82.906,82.906,0,0,1-6.184-7.859c-.213-.655-1.919-7.423-2.132-8.078s-4.9-7.859-4.9-7.859l-2.133-5.4-2.985-2.674-.853,2.674a47.826,47.826,0,0,0,1.706,4.967,57.169,57.169,0,0,1,1.706,5.676c.213.655,1.919,3.711,1.919,3.711l-3.2.437-4.691-7.86-3.2-2.183-2.558-2.838-3.839-.436a33.419,33.419,0,0,0,.427,3.711,32.713,32.713,0,0,0,4.051,5.458c.64.436,2.559,5.458,2.559,5.458l3.2,2.838-2.985.655s-3.411-1.092-3.838-1.965-3.2-5.458-3.412-6.113a47.344,47.344,0,0,0-3.624-4.585h-9.382Z" transform="translate(0 0.541)" fill="#606060"/>
  <path d="M955.519,130.186v7.028s.607,7.641,1.246,8.3,2.719,5.894,2.719,5.894l1.972,4.585,1.493-1.092V146.82l-1.066-3.733,3.2,2.423,4.691,8.951,4.691,1.528a59.455,59.455,0,0,1-.853-6.386c0-1.692-2.559-4.354-3.838-6.516s-4.781-6.746-4.781-6.746v-4.257l-1.875-3.407Z" transform="translate(0 0.541)" fill="#606060"/>
  <path d="M978.514,118.386l2.772,5.511s1.493,4.976,2.132,4.78,4.691,1.333,4.691,1.333h4.9v-4.585s-2.986-2.62-3.625-3.056-5.971-4.858-5.971-4.858Z" transform="translate(0 0.541)" fill="#606060"/>
  <polygon points="1040.563 142.874 1044.721 151.29 1044.721 161.988 1042.642 167.336 1078.304 223.333 1074.786 229.228 1076.705 234.14 1095.895 262.957 1102.932 260.992 1109.008 265.249 1113.486 272.781 1113.486 300.288 1118.284 289.482 1124.361 289.154 1124.361 272.126 1130.757 271.799 1130.757 243.636 1121.482 213.182 1122.122 199.101 1128.199 186.329 1130.757 176.505 1149.948 176.833 1147.709 166.354 1141.632 156.53 1125.64 134.917 1116.685 113.304 1107.409 91.036 1100.693 81.867 1093.336 81.867 1091.417 93.983 1091.097 110.357 1095.255 118.927 1101.332 122.801 1103.251 134.262 1107.089 142.874 1112.847 144.741 1115.405 166.681 1111.247 170.283 1107.089 157.84 1101.012 150.963 1093.336 156.53 1092.057 161.988 1095.255 175.196 1097.174 181.417 1091.097 182.727 1086.94 169.629 1080.863 164.662 1076.385 167.009 1069.668 169.629 1065.191 161.988 1056.875 152.273 1052.397 146.378 1040.563 142.874" fill="#606060"/>
  <path d="M1603.479,409.777l-9.6-17.029-16.312-12.771,6.717-2.292,8.316,1.965,11.514,2.292,7.356,4.257,6.717-1.965-7.357-7.532-13.753-18.993-12.793-19.32-13.753-13.754L1548.467,304l-12.154,6.55-21.749-5.24-25.587-22.922-10.235-14.409-10.235-20.3-23.028-2.62-29.425-16.373-20.47-25.543-26.227-6.222L1357.2,182.186l-24.947-.655-14.713-15.718-12.793-3.93L1279.8,110.8l-28.785-3.929-42.859-56.98-15.991-2.62-14.713-4.584-17.911-7.859-15.352-15.064c-.723-2.315-9.645-6.538-16.9-9.924L1112.207-.541h-11.514l2.558,10.806,6.4,3.6,2.239,5.239V39.083l-2.559,17.683-3.038,7.859,8.476,5.24,7.356,18.338,2.559,16.373h2.558l4.158-5.894,3.2,3.6,1.919,11.789,28.145,25.87,2.239,21.5-2.558,9.278,7.036,3.275,2.239,6.549-4.158,4.257,2.559,62.546h5.757l3.838-8.841,6.077,2.62,5.117,9.824,5.438,8.514h4.157v-8.514l2.559.982,5.757,18.011,7.676,6.222,8.956,4.257,5.757,7.2,5.757,9.824,1.279,4.912h-4.158l-6.4-9.5-6.077-7.86-5.438-2.292,2.239,9.169,6.077,7.859,6.4,8.515,10.875,6.549L1244.94,323l-3.518,3.274,1.6,8.514,16.951,21.941,3.2,13.426-5.437,2.292-4.478-9.169-3.2,9.169-5.757-1.964,2.879-15.391-5.118-13.1-10.234-2.947-1.28-10.4-7.356-8.923-6.077-4.585-6.4,13.508-2.239,20.222,2.559,18.01-3.2,16.7-.32,14.736,2.878,5.567,5.118-5.567,3.518-5.894,3.838,3.6-2.879,10.479,2.879,9.5,8.956,12.443,4.477,12.444h6.717l-.32-10.479-7.676-18.338,5.437-1.637,3.2,2.947,1.6-10.152,6.716-.655.96-14.081,3.838-5.894,4.158,5.894,4.8,13.754s6.077,12.771,7.037,14.081,14.073,9.824,14.073,9.824V393.731l7.036,1.965,3.838,5.567,11.195,2.947,6.716,5.567,8,3.6,1.919-11.134h13.753s13.753,2.947,15.033,3.6,9.6,4.585,9.6,4.585,8,9.169,8.955,9.824,10.875,10.151,10.875,10.151l6.4,4.585V421.238l-21.43-31.437-23.987-38.314-5.758-24.887s-3.518-12.444-3.518-13.426,1.919-9.824,1.919-9.824l7.357,8.514,8,14.408s8.315,12.772,8.635,13.754,14.393,12.771,14.393,12.771l11.514,11.789,10.235,6.222,12.154,7.532,1.6-6.877,3.518-13.754,5.757,6.877,4.478,12.116,13.753,11.462s11.834,7.2,12.794,7.2,10.874.655,10.874.655l10.235,4.912,8.956,7.2,3.2-11.788,5.757,1.637,3.838,5.567,6.4-5.24,4.478,10.152,5.437,13.754,11.514-2.62,8.316,11.461,16.312,6.55,16.951,7.531-5.757-15.391L1547.507,419.6l13.114-2.947,17.271,2.292,12.154,3.6,12.793,7.2,10.875.328,11.194,5.239,11.514,7.86,7.037,1.964,1.279-4.257Zm-444.9-295.7,16.952,9.688-3.838,2.1Zm18.551,28.26-10.075-9.922,39.5,27.507L1199.2,166.8ZM1215.2,242.768,1199.2,225.412l-8-4.584-7.036-1.638-4.478-44.208h4.478l8.315,35.694,29.426,27.835Zm11.834-91.691-17.271-25.215-3.2-23.578,23.988,40.049Zm206.936,172.9-16.632-14.736-22.069-2.62-17.271-37.659,3.2-2.292,11.195,7.859,21.429,2.293,7.676,19.648,16.951,27.507Zm11.194-43.881-4.478-2.619h6.717Zm56.931,32.747-21.749-4.912-13.113-4.584-.32-13.427,4.158-8.186-15.352-5.567-13.434-9.5,27.826,4.585,11.834,12.771,22.389,24.233Z" transform="translate(0 0.541)" fill="#606060"/>
  <polygon points="1691.968 240.362 1695.806 240.362 1696.872 244.073 1699.004 246.038 1699.004 247.784 1701.137 250.841 1704.335 252.805 1704.335 256.517 1699.857 256.517 1694.74 250.622 1690.902 246.911 1688.343 241.235 1691.968 240.362" fill="#606060"/>
  <path d="M1774.486,334.786c-.64-.218-6.823-5.021-6.823-5.021l-1.493-6.331-2.132-4.366,2.346-2.4,3.2,5.894,2.345,3.493,5.331.437,3.2-1.747-5.118-5.894s-4.9-9.824-4.9-10.479v-10.7l-5.117-7.913,3.2-2.129,2.772,3.711,5.117,1.965V289.76l-6.4-10.861-19.4-12.226-7.676-9.606,5.97-1.091-.213-4.366s-15.566-16.81-15.992-17.465-1.066-8.951-1.066-8.951l-7.037-6.55-7.889-4.584-5.117-7.641-11.515-9.5-6.811,5.618,1.907,4.752,6.61,4.585,1.28,26.634.853,8.732,4.264,5.676,1.706,6.332-6.61,1.746h-8.742l-4.265-6.113-4.691-.218-1.279,12.007-1.919,12.662,6.823,10.425,8.955,3.111,2.133,7.422,8.529,4.585,10.448,2.183,1.066-5.676-7.89-7.423-8.528-4.2s-1.92-6.277-2.559-6.932-4.9-8.3-4.9-8.3l4.051-7.859h4.051l.427,10.261,2.772,6.549,3.2,6.277,8.1,1.146,5.758,5.458,4.9,5.239,9.169,2.838,2.771,5.24,2.346,6.986h-3.625l-4.9-6.113-2.772,6.113-.853,5.676-3.625,2.619,2.985,3.684,16.632,3.521,15.139,6.767,4.9,3.93h9.382l8.956,1.31v-6.549S1775.126,335.005,1774.486,334.786Zm-51.707-71.715v2.947l-3.678-1.31-1.44-2.783v-3.439l-3.518-4.093-2.079-5.567,2.879,1.8,4.158.164,3.678,4.421-1.439,3.274Zm30.7,47.974s-3.518-3.6-3.678-4.257-4-4.421-4.477-4.585-3.519-3.111-4-3.274a14.97,14.97,0,0,1-2.239-2.456l-3.039-3.111-1.759-7.859,3.358-2.456,1.28,3.438s4.478,2.783,5.437,3.275,1.759,4.912,1.919,5.567,5.118,5.73,5.757,6.221,2.4,4.913,2.4,4.913Z" transform="translate(0 0.541)" fill="#606060"/>
  <polygon points="1770.861 225.735 1773.42 231.848 1776.618 233.376 1776.618 229.555 1774.913 224.643 1770.861 225.735" fill="#606060"/>
  <path d="M1779.39,182.841l1.493,11.789,2.772,8.3v25.543l7.25,7.64,1.7,10.261,4.905,5.895v11.788l8.315,8.078s8.316.437,8.316,1.092,1.919,9.824,1.919,9.824l-2.345,3.929-8.529-6.768-2.346,4.367,4.691,6.331,7.037,13.535,3.2,15.064,5.544,9.142,4.9-3.9-7.463-23.359,1.493-2.62,7.463,10.7,12.367,19.185,2.132-7.614,4.478-.655-6.823-15.937-3.412-10.479,8.955,4.366,7.463,11.789,3.412,18.53,6.823,13.562,3.838-5.021,5.757,2.4,2.772,8.951,10.235-2.4,10.022,7.641,9.168,6.331,8.743,5.894,2.132-3.275L1907.113,349.2,1919,358.364V318.413l-17.431-10.479-19.83-28.817-17.272-1.965-8.315-15.718-17.911-11.789L1806.9,216.9,1794.1,196.922Z" transform="translate(0 0.541)" fill="#606060"/>
</svg>
